<svg xmlns="http://www.w3.org/2000/svg" version="1.2" viewBox="108.4 60.8 285.9 397.1">
	<title>New Project</title>
	<style>
		tspan { white-space:pre } 
		.s0 { fill: #000000;stroke: #ffffff;paint-order:stroke fill markers;stroke-miterlimit:100;stroke-width: 48 } 
	</style>
	<path id="♟ copy" class="s0" d="m132.4 343.5v-23.4l73.4-100.1q-29.2-22.1-29.2-60.4 0-31.2 21.4-52.7 22.1-22.1 53.3-22.1 31.2 0 52.7 22.1 22.1 21.5 22.1 52.7 0 38.3-29.3 60.4l73.5 100.1v23.4q-58.5 18.2-119 18.2-60.4 0-118.9-18.2zm0 72.1v-45.5q58.5 18.3 118.9 18.3 60.5 0 119-18.3v45.5q-58.5 18.3-119 18.3-60.4 0-118.9-18.3z"/>
</svg>