<svg width="720px" height="720px" xmlns="http://www.w3.org/2000/svg">
  <line x1="0" y1="0" x2="720" y2="0" style="stroke:black;stroke-width:1" shape-rendering="crispEdges"/>
  <line x1="0" y1="41" x2="720" y2="41" style="stroke:black;stroke-width:1" shape-rendering="crispEdges"/>
  <line x1="0" y1="81" x2="720" y2="81" style="stroke:black;stroke-width:1" shape-rendering="crispEdges"/>
  <line x1="0" y1="121" x2="720" y2="121" style="stroke:black;stroke-width:1" shape-rendering="crispEdges"/>
  <line x1="0" y1="161" x2="720" y2="161" style="stroke:black;stroke-width:1" shape-rendering="crispEdges"/>
  <line x1="0" y1="201" x2="720" y2="201" style="stroke:black;stroke-width:1" shape-rendering="crispEdges"/>
  <line x1="0" y1="241" x2="720" y2="241" style="stroke:black;stroke-width:1" shape-rendering="crispEdges"/>
  <line x1="0" y1="281" x2="720" y2="281" style="stroke:black;stroke-width:1" shape-rendering="crispEdges"/>
  <line x1="0" y1="321" x2="720" y2="321" style="stroke:black;stroke-width:1" shape-rendering="crispEdges"/>
  <line x1="0" y1="361" x2="720" y2="361" style="stroke:black;stroke-width:1" shape-rendering="crispEdges"/>
  <line x1="0" y1="401" x2="720" y2="401" style="stroke:black;stroke-width:1" shape-rendering="crispEdges"/>
  <line x1="0" y1="441" x2="720" y2="441" style="stroke:black;stroke-width:1" shape-rendering="crispEdges"/>
  <line x1="0" y1="481" x2="720" y2="481" style="stroke:black;stroke-width:1" shape-rendering="crispEdges"/>
  <line x1="0" y1="521" x2="720" y2="521" style="stroke:black;stroke-width:1" shape-rendering="crispEdges"/>
  <line x1="0" y1="561" x2="720" y2="561" style="stroke:black;stroke-width:1" shape-rendering="crispEdges"/>
  <line x1="0" y1="601" x2="720" y2="601" style="stroke:black;stroke-width:1" shape-rendering="crispEdges"/>
  <line x1="0" y1="641" x2="720" y2="641" style="stroke:black;stroke-width:1" shape-rendering="crispEdges"/>
  <line x1="0" y1="681" x2="720" y2="681" style="stroke:black;stroke-width:1" shape-rendering="crispEdges"/>
  <line x1="0" y1="719" x2="720" y2="719" style="stroke:black;stroke-width:1" shape-rendering="crispEdges"/>

  <line x1="1" y1="0" x2="1" y2="720" style="stroke:black;stroke-width:1" shape-rendering="crispEdges"/>
  <line x1="41" y1="0" x2="41" y2="720" style="stroke:black;stroke-width:1" shape-rendering="crispEdges"/>
  <line x1="81" y1="0" x2="81" y2="720" style="stroke:black;stroke-width:1" shape-rendering="crispEdges"/>
  <line x1="121" y1="0" x2="121" y2="720" style="stroke:black;stroke-width:1" shape-rendering="crispEdges"/>
  <line x1="161" y1="0" x2="161" y2="720" style="stroke:black;stroke-width:1" shape-rendering="crispEdges"/>
  <line x1="201" y1="0" x2="201" y2="720" style="stroke:black;stroke-width:1" shape-rendering="crispEdges"/>
  <line x1="241" y1="0" x2="241" y2="720" style="stroke:black;stroke-width:1" shape-rendering="crispEdges"/>
  <line x1="281" y1="0" x2="281" y2="720" style="stroke:black;stroke-width:1" shape-rendering="crispEdges"/>
  <line x1="321" y1="0" x2="321" y2="720" style="stroke:black;stroke-width:1" shape-rendering="crispEdges"/>
  <line x1="361" y1="0" x2="361" y2="720" style="stroke:black;stroke-width:1" shape-rendering="crispEdges"/>
  <line x1="401" y1="0" x2="401" y2="720" style="stroke:black;stroke-width:1" shape-rendering="crispEdges"/>
  <line x1="441" y1="0" x2="441" y2="720" style="stroke:black;stroke-width:1" shape-rendering="crispEdges"/>
  <line x1="481" y1="0" x2="481" y2="720" style="stroke:black;stroke-width:1" shape-rendering="crispEdges"/>
  <line x1="521" y1="0" x2="521" y2="720" style="stroke:black;stroke-width:1" shape-rendering="crispEdges"/>
  <line x1="561" y1="0" x2="561" y2="720" style="stroke:black;stroke-width:1" shape-rendering="crispEdges"/>
  <line x1="601" y1="0" x2="601" y2="720" style="stroke:black;stroke-width:1" shape-rendering="crispEdges"/>
  <line x1="641" y1="0" x2="641" y2="720" style="stroke:black;stroke-width:1" shape-rendering="crispEdges"/>
  <line x1="681" y1="0" x2="681" y2="720" style="stroke:black;stroke-width:1" shape-rendering="crispEdges"/>
  <line x1="720" y1="0" x2="720" y2="720" style="stroke:black;stroke-width:1" shape-rendering="crispEdges"/>

  <circle cx="121" cy="121" r="2" stroke="black" fill="black" />
  <circle cx="601" cy="121" r="2" stroke="black" fill="black"/>
  <circle cx="121" cy="601" r="2" stroke="black" fill="black"/>
  <circle cx="601" cy="601" r="2" stroke="black" fill="black"/>

  <circle cx="361" cy="361" r="2" stroke="black" fill="black"/>
  <circle cx="121" cy="361" r="2" stroke="black" fill="black"/>
  <circle cx="361" cy="121" r="2" stroke="black" fill="black"/>
  <circle cx="601" cy="361" r="2" stroke="black" fill="black"/>
  <circle cx="361" cy="601" r="2" stroke="black" fill="black"/>

</svg>