<svg width="314" height="57" viewBox="0 0 314 57" fill="none" xmlns="http://www.w3.org/2000/svg">
<path d="M241.759 41.0689C242.578 40.0266 244.215 34.9249 244.141 34.3681C244.067 33.8112 239.211 34.0278 236.696 35.5593C235.203 36.4683 233.494 36.6017 233.494 38.6864C233.494 40.771 236.547 42.7813 237.887 43.0046C239.227 43.228 240.94 42.1112 241.759 41.0689Z" fill="#222"/>
<path d="M239.227 29.7519C240.133 30.6911 242.056 31.3154 242.429 32.06C242.801 32.8045 235.235 33.5709 234.09 33.549C232.945 33.5271 229.906 33.339 228.655 32.73C227.404 32.1211 224.977 29.0057 224.858 27.6672C224.738 26.3287 227.376 25.6698 227.687 24.7635C227.998 23.8573 227.597 22.7199 228.357 21.6365C229.117 20.5531 231.291 20.7349 232.75 21.4876C234.209 22.2403 238.321 28.8127 239.227 29.7519Z" fill="#222"/>
<path d="M229.113 38.4345C230.988 38.6274 235.178 35.3742 235.619 34.8229C236.06 34.2715 232.118 35.0434 231.181 34.9331C230.243 34.8229 226.191 31.8454 225.363 31.9005C224.536 31.9556 223.902 33.9958 224.343 35.3191C224.785 36.6424 227.238 38.2415 229.113 38.4345Z" fill="#222"/>
<path d="M278.857 23.9203C278.857 26.5543 276.774 36.6002 276.162 35.9264C275.549 35.2526 269.791 27.2894 270.036 24.7167C270.281 22.1439 271.2 21.0414 274.263 20.4901C277.326 19.9388 278.857 21.2863 278.857 23.9203Z" fill="#222"/>
<path d="M271.935 37.6415C274.202 37.519 274.447 38.1928 275.182 37.7028C275.917 37.2127 272.727 34.4118 270.588 32.9861C266.878 30.5147 262.318 29.3108 259.439 30.5359C256.56 31.7611 254.294 34.0887 253.865 36.2939C253.436 38.4992 253.681 40.5205 258.643 40.9493C263.604 41.3781 269.669 37.7641 271.935 37.6415Z" fill="#222"/>
<path d="M275.059 40.8269C275.488 39.9695 276.162 39.6628 276.284 39.1117C276.407 38.5606 273.362 38.8513 271.506 39.0504C267.562 39.4738 264.462 41.9907 262.012 42.6645C259.562 43.3383 256.621 42.3582 255.457 42.9708C254.294 43.5833 254.355 44.4409 254.294 46.1561C254.232 47.8712 254.845 49.2189 257.111 50.1989C259.378 51.179 264.34 52.5265 268.321 49.8927C272.303 47.2588 274.63 41.6843 275.059 40.8269Z" fill="#222"/>
<path d="M277.999 41.0717C278.122 39.1116 277.938 37.2738 278.306 37.8252C278.673 38.3765 282.152 42.5613 284.247 45.8496C285.871 48.3968 287.984 50.3824 288.045 52.5877C288.107 54.7929 285.473 56.2018 283.329 56.263C281.185 56.3242 279.347 56.0793 277.081 53.4453C274.814 50.8112 275.059 47.9935 275.12 46.0946C275.182 44.1958 277.877 43.0318 277.999 41.0717Z" fill="#222"/>
<path d="M289.332 50.6888C288.597 50.0762 280.695 38.9277 280.388 38.0702C280.082 37.2126 281.613 38.5602 282.839 39.0502C284.064 39.5403 285.105 39.0502 287.678 39.3565C290.25 39.6628 294.722 41.3779 295.09 44.502C295.457 47.626 293.007 49.7087 292.333 50.26C291.659 50.8113 290.067 51.3013 289.332 50.6888Z" fill="#222"/>
<path d="M284.86 32.1284C284.86 32.1284 277.938 36.4163 277.448 36.2325C276.958 36.0487 279.286 31.7609 279.592 30.2295C279.898 28.6981 280.45 23.8589 280.327 22.205C280.205 20.5511 282.532 18.2847 286.453 19.081C290.373 19.8773 289.76 24.1652 289.332 25.8191C288.903 27.473 284.86 32.1284 284.86 32.1284Z" fill="#222"/>
<path d="M9.7458 28.6141C12.3629 29.2871 19.8405 28.3898 19.4667 28.988C19.0928 29.5862 9.59621 34.8205 6.82951 34.7458C4.0628 34.671 1.22075 33.8552 0.847423 31.1565C0.566369 29.1248 1.37088 26.6699 3.31504 26.5204C5.2592 26.3708 7.12865 27.9411 9.7458 28.6141Z" fill="#222"/>
<path d="M16.3261 23.6789C17.3729 25.0249 19.6162 26.5204 19.8406 27.1934C20.0649 27.8663 12.9295 29.1323 9.29712 27.1934C7.32842 26.1425 4.73578 26.2213 5.10966 23.305C5.48354 20.3887 9.52145 19.0428 11.4656 19.1923C13.4098 19.3419 15.2792 22.3329 16.3261 23.6789Z" fill="#222"/>
<path d="M20.6631 22.0338C20.5778 22.544 20.8295 27.0319 21.5604 27.1934C22.2913 27.3548 23.1642 24.1395 24.1776 22.7816C25.191 21.4236 28.1236 18.6887 28.0659 17.9212C28.0082 17.1536 24.5649 18.6887 23.4298 18.968C22.2947 19.2473 20.7483 21.5237 20.6631 22.0338Z" fill="#222"/>
<path d="M17.8429 17.2718C17.8099 18.0956 18.469 21.6872 19.2598 21.7202C20.0506 21.7532 20.7426 19.2818 21.2698 18.8205C21.797 18.3592 25.2569 17.9967 25.0921 16.9423C24.9274 15.8878 21.5334 15.0311 20.446 15.0971C19.3586 15.163 17.8759 16.448 17.8429 17.2718Z" fill="#222"/>
<path d="M30.0304 18.384C28.9205 19.3249 23.4639 26.6801 23.4456 27.7456C23.4272 28.8111 25.7029 28.4476 26.4603 28.6183C27.2178 28.789 33.1464 25.8024 34.6319 25.5242C36.1174 25.2461 40.2967 26.7866 41.4548 26.0796C42.6128 25.3726 43.2392 24.3101 43.2002 22.9855C43.1612 21.6609 43.1186 21.8777 42.4861 20.2087C41.8536 18.5397 39.2386 16.937 35.6633 16.718C32.0879 16.499 31.1403 17.4431 30.0304 18.384Z" fill="#222"/>
<path d="M21.9973 29.7307C21.9973 29.7307 32.9404 34.8141 45.8674 34.6022C58.7945 34.3903 114.034 31.8594 121.099 31.0969C128.164 30.3344 134.437 28.8058 137.049 28.1433C139.66 27.4808 139.255 25.4861 139.255 25.4861M220.391 30.3288C220.391 30.3288 156.882 29.6663 151.96 29.9944C147.039 30.3224 141.527 31.3723 138.706 32.0941C135.884 32.8159 130.241 34.6531 128.995 35.7686C127.748 36.8841 128.995 38.3277 128.995 38.3277M256.17 30.3288L242.868 30.3288M270.748 30.686C270.748 30.686 270.258 30.2899 269.14 30.0103C268.021 29.7307 266.484 29.7307 266.484 29.7307M285.259 34.1025C285.259 34.1025 289.297 33.129 291.428 31.6529C293.22 30.4118 295.329 27.6611 295.329 27.6611M280.963 36.1563C280.963 36.1563 287.651 36.7873 292.635 35.3361C297.62 33.8849 305.444 27.6611 309.103 21.7078C312.762 15.7545 315.727 6.09382 301.925 13.5768M297.872 29.91L295.329 30.9128M289.763 29.91L288.745 29.91M252.063 36.1463C252.063 36.1463 250.434 35.9078 249.439 35.5791C247.279 34.8655 244.475 32.5299 244.475 32.5299" stroke="#222" stroke-width="2" stroke-linecap="round"/>
<ellipse cx="137.932" cy="24.9725" rx="2.40103" ry="1.577" transform="rotate(-158.909 137.932 24.9725)" fill="#222"/>
<path d="M293.462 23.3157C293.499 23.7254 291.264 25.4756 291.041 25.1405C290.818 24.8053 290.482 21.0813 290.631 20.7089C290.78 20.3366 292.978 19.4428 293.089 19.7779C293.201 20.1131 292.977 21.6772 293.052 22.1241C293.126 22.5709 293.424 22.9061 293.462 23.3157Z" fill="#222"/>
<path d="M290.296 19.2565C291.004 19.2193 292.829 18.8096 292.903 18.5117C292.978 18.2138 291.339 15.607 288.993 13.9685C286.647 12.3299 281.396 13.1119 280.577 14.5643C279.757 16.0167 280.428 18.4 281.508 18.4745C282.588 18.549 284.822 17.3573 286.647 17.2828C288.472 17.2083 289.589 19.2938 290.296 19.2565Z" fill="#222"/>
<path d="M289.179 8.94105C289.589 11.4734 292.456 15.4953 292.978 15.9049C293.499 16.3146 293.499 13.6333 293.834 12.963C294.169 12.2927 296.069 8.01005 296.255 8.75485C296.441 9.49965 295.398 11.4734 295.212 12.5533C295.026 13.6333 294.616 16.7615 294.914 17.2083C295.212 17.6552 301.431 10.8403 302.585 7.78661C303.74 4.73293 301.245 0.562056 299.122 0.226897C296.999 -0.108262 296.553 2.42406 295.994 2.34958C295.435 2.2751 294.914 0.859981 293.015 1.04618C291.116 1.23238 288.769 6.40873 289.179 8.94105Z" fill="#222"/>
<path d="M299.271 21.3047C298.191 20.8578 295.995 19.2565 295.622 18.5117C295.249 17.7669 301.58 15.5325 303.442 15.5325C305.304 15.5325 306.682 16.0166 306.645 18.0276C306.608 20.0386 306.272 22.5336 304.299 22.5709C302.325 22.6081 300.351 21.7516 299.271 21.3047Z" fill="#222"/>
<path d="M294.468 22.9805C294.207 21.8634 294.17 20.0013 294.542 19.7779C294.915 19.5545 299.383 23.2414 299.867 23.4274C300.352 23.6134 302.772 23.2041 303.07 23.4646C303.368 23.7251 303.331 24.6935 303.145 25.4756C302.958 26.2576 300.985 28.0824 299.309 27.9707C297.633 27.859 294.728 24.0977 294.468 22.9805Z" fill="#222"/>
</svg>
