<svg width="403" height="103" viewBox="0 0 403 103" fill="none" xmlns="http://www.w3.org/2000/svg">
<path d="M119.552 34.2837C118.19 36.0175 115.466 44.5035 115.589 45.4297C115.712 46.356 123.79 45.9956 127.973 43.4482C130.456 41.9363 133.299 41.7144 133.299 38.2468C133.299 34.7792 128.221 31.4354 125.992 31.0638C123.763 30.6923 120.914 32.55 119.552 34.2837Z" fill="#222"/>
<path d="M123.763 53.1081C122.255 51.5459 119.057 50.5074 118.437 49.269C117.818 48.0305 130.404 46.7556 132.308 46.7921C134.212 46.8286 139.267 47.1414 141.349 48.1544C143.43 49.1673 147.465 54.3493 147.665 56.5758C147.864 58.8022 143.476 59.8982 142.958 61.4057C142.441 62.9131 143.109 64.8051 141.844 66.6071C140.579 68.4092 136.964 68.1069 134.537 66.8548C132.11 65.6027 125.27 54.6704 123.763 53.1081Z" fill="#222"/>
<path d="M140.587 38.6658C137.468 38.3448 130.498 43.7561 129.764 44.6732C129.03 45.5904 135.588 44.3064 137.147 44.4898C138.706 44.6732 145.448 49.6259 146.823 49.5342C148.199 49.4425 149.254 46.049 148.52 43.8478C147.786 41.6466 143.705 38.9868 140.587 38.6658Z" fill="#222"/>
<path d="M57.8434 62.8083C57.8433 58.427 61.3075 41.7168 62.3265 42.8377C63.3454 43.9585 72.9231 57.2043 72.5156 61.4837C72.108 65.7631 70.5796 67.5971 65.4851 68.5141C60.3906 69.4312 57.8434 67.1896 57.8434 62.8083Z" fill="#222"/>
<path d="M69.3569 39.9848C65.587 40.1887 65.1794 39.0678 63.9567 39.8829C62.7341 40.6981 68.039 45.3571 71.5985 47.7285C77.7693 51.8394 85.3538 53.842 90.1426 51.8041C94.9315 49.7662 98.7015 45.8945 99.4147 42.2264C100.128 38.5582 99.7204 35.1959 91.4672 34.4827C83.2141 33.7695 73.1269 39.781 69.3569 39.9848Z" fill="#222"/>
<path d="M64.1605 34.6864C63.4473 36.1126 62.3266 36.6227 62.1227 37.5393C61.9188 38.456 66.984 37.9725 70.0702 37.6412C76.6318 36.937 81.7876 32.7505 85.8632 31.6297C89.9389 30.5089 94.8296 32.1391 96.7655 31.1202C98.7015 30.1013 98.5996 28.6748 98.7015 25.8219C98.8034 22.969 97.7844 20.7273 94.0145 19.0971C90.2445 17.4669 81.9914 15.2254 75.3685 19.6066C68.7456 23.9877 64.8738 33.2602 64.1605 34.6864Z" fill="#222"/>
<path d="M59.2698 34.2791C59.066 37.5395 59.3717 40.5964 58.7603 39.6793C58.149 38.7622 52.3629 31.8013 48.877 26.3317C46.1766 22.0947 42.6616 18.7918 42.5597 15.1238C42.4579 11.4557 46.8391 9.11211 50.4053 9.01027C53.9715 8.90843 57.0282 9.3158 60.7981 13.6972C64.5681 18.0786 64.1606 22.7656 64.0586 25.9241C63.9567 29.0826 59.4736 31.0187 59.2698 34.2791Z" fill="#222"/>
<path d="M40.42 18.2823C41.6427 19.3013 54.7867 37.8454 55.2961 39.2718C55.8054 40.6983 53.2584 38.4567 51.2205 37.6416C49.1827 36.8264 47.4506 37.6416 43.1712 37.1321C38.8918 36.6227 31.4537 33.7697 30.8424 28.5733C30.2311 23.3769 34.3066 19.9126 35.4274 18.9956C36.5483 18.0786 39.1974 17.2634 40.42 18.2823Z" fill="#222"/>
<path d="M47.8581 49.1552C47.8581 49.1552 59.3718 42.0229 60.1869 42.3285C61.002 42.6342 57.1302 49.7666 56.6207 52.3138C56.1113 54.8611 55.1942 62.9104 55.398 65.6615C55.6018 68.4125 51.73 72.1825 45.209 70.8579C38.688 69.5333 39.7069 62.401 40.4201 59.6499C41.1333 56.8989 47.8581 49.1552 47.8581 49.1552Z" fill="#222"/>
<path d="M346.747 23.2787C351.101 24.3982 363.539 22.9056 362.917 23.9006C362.295 24.8957 346.499 33.6024 341.897 33.478C337.294 33.3536 332.567 31.9966 331.946 27.5077C331.479 24.1283 332.817 20.0448 336.051 19.7961C339.284 19.5473 342.394 22.1592 346.747 23.2787Z" fill="#222"/>
<path d="M357.693 15.0696C359.434 17.3085 363.166 19.7961 363.539 20.9155C363.912 22.0349 352.043 24.1406 346.001 20.9155C342.726 19.1676 338.414 19.2986 339.036 14.4477C339.658 9.59686 346.374 7.35799 349.608 7.60676C352.842 7.85553 355.952 12.8307 357.693 15.0696Z" fill="#222"/>
<path d="M364.907 12.3332C364.765 13.1818 365.184 20.647 366.4 20.9155C367.615 21.184 369.067 15.8358 370.753 13.577C372.439 11.3182 377.317 6.76904 377.221 5.49231C377.125 4.21558 371.397 6.76904 369.509 7.23363C367.621 7.69822 365.049 11.4847 364.907 12.3332Z" fill="#222"/>
<path d="M360.216 4.41219C360.161 5.7824 361.257 11.7567 362.573 11.8115C363.888 11.8664 365.039 7.75551 365.916 6.98823C366.793 6.22096 372.548 5.61799 372.274 3.86407C372 2.11015 366.355 0.685097 364.546 0.794819C362.737 0.904541 360.271 3.04198 360.216 4.41219Z" fill="#222"/>
<path d="M380.488 6.26222C378.642 7.82733 369.566 20.0618 369.535 21.8341C369.505 23.6064 373.29 23.0018 374.55 23.2857C375.81 23.5697 385.671 18.6018 388.142 18.1391C390.613 17.6764 397.565 20.2388 399.491 19.0628C401.418 17.8869 402.459 16.1195 402.395 13.9162C402.33 11.7129 402.259 12.0736 401.207 9.29742C400.155 6.52123 395.805 3.85521 389.858 3.49095C383.911 3.12669 382.335 4.69711 380.488 6.26222Z" fill="#222"/>
<path d="M370.145 25.2044C370.145 25.2044 353.001 37.1881 334.771 41.9086C316.541 46.629 273.811 48.501 262.059 49.7693C250.307 51.0377 239.872 53.5803 235.529 54.6823C231.186 55.7844 231.859 59.1023 231.859 59.1023M149.822 52.1491C149.822 52.1491 202.539 52.1491 210.725 51.6033C218.911 51.0576 228.079 49.3113 232.772 48.1107C237.465 46.9101 246.852 43.8541 248.926 41.9986C250.999 40.1431 248.926 37.7419 248.926 37.7419M95.5812 52.1491H117.707M71.3326 51.5548C71.3326 51.5548 72.1466 52.2137 74.0069 52.6788C75.8673 53.1439 78.4253 53.1439 78.4253 53.1439M47.1948 45.872C47.1948 45.872 40.4775 47.4913 36.933 49.9465C33.9524 52.0111 30.4438 56.5865 30.4438 56.5865M54.3405 42.4557C54.3405 42.4557 43.2158 41.4062 34.9249 43.82C26.634 46.2339 13.6201 56.5865 7.53312 66.4891C1.44612 76.3916 -3.48477 92.461 19.4731 80.014M26.2139 52.8457L30.4438 51.1777M39.702 52.8457H41.3969M102.413 42.4723C102.413 42.4723 105.121 42.8691 106.777 43.416C110.37 44.6028 115.034 48.4879 115.034 48.4879" stroke="#222" stroke-width="3" stroke-linecap="round"/>
<ellipse cx="234.195" cy="59.6532" rx="3.99382" ry="2.62315" transform="rotate(21.0907 234.195 59.6532)" fill="#222"/>
<path d="M33.5513 63.8139C33.4894 63.1325 37.2061 60.2212 37.5777 60.7787C37.9493 61.3361 38.5068 67.5306 38.2591 68.15C38.0114 68.7693 34.3566 70.2561 34.1708 69.6986C33.9849 69.1411 34.3566 66.5394 34.2327 65.7961C34.1088 65.0528 33.6132 64.4953 33.5513 63.8139Z" fill="#222"/>
<path d="M38.8165 70.5659C37.6395 70.6278 34.6043 71.3092 34.4804 71.8048C34.3565 72.3003 37.082 76.6364 40.9845 79.3619C44.887 82.0875 53.6211 80.7867 54.9839 78.3708C56.3467 75.955 55.2317 71.9906 53.4353 71.8667C51.6389 71.7428 47.9222 73.725 44.887 73.8489C41.8517 73.9728 39.9934 70.5039 38.8165 70.5659Z" fill="#222"/>
<path d="M40.6748 87.7244C39.9934 83.5122 35.2237 76.8222 34.3565 76.1409C33.4893 75.4595 33.4891 79.9194 32.9318 81.0344C32.3745 82.1494 29.2149 89.273 28.9054 88.0341C28.5959 86.7952 30.3303 83.5122 30.6398 81.7158C30.9494 79.9194 31.6307 74.7161 31.1354 73.9728C30.6401 73.2295 20.2952 84.5653 18.375 89.6447C16.4547 94.7241 20.6049 101.662 24.1357 102.219C27.6665 102.777 28.4099 98.5646 29.339 98.6885C30.2682 98.8124 31.1354 101.166 34.2945 100.857C37.4537 100.547 41.3562 91.9366 40.6748 87.7244Z" fill="#222"/>
<path d="M23.8877 67.159C25.6841 67.9023 29.3382 70.5659 29.9582 71.8048C30.5783 73.0436 20.0472 76.7603 16.95 76.7603C13.8529 76.7603 11.5608 75.955 11.6228 72.61C11.6848 69.2651 12.2423 65.1148 15.5253 65.0529C18.8083 64.9909 22.0914 66.4156 23.8877 67.159Z" fill="#222"/>
<path d="M31.8779 64.3715C32.3115 66.2298 32.3734 69.327 31.754 69.6987C31.1346 70.0703 23.7013 63.9376 22.896 63.6282C22.0907 63.3188 18.0644 63.9995 17.5688 63.5662C17.0732 63.1329 17.1352 61.5221 17.4449 60.2213C17.7546 58.9204 21.0377 55.8852 23.8252 56.071C26.6126 56.2568 31.4443 62.5132 31.8779 64.3715Z" fill="#222"/>
</svg>
