<svg width="48" height="47" viewBox="0 0 48 47" fill="none" xmlns="http://www.w3.org/2000/svg">
<path d="M45.2974 29.9618C45.2974 29.9618 39.7829 33.2025 35.8516 34.01C31.9157 34.8184 25.5625 34.01 25.5625 34.01" stroke="#7A9F64" stroke-width="2"/>
<path d="M43.7231 17.3676C43.7231 17.3676 40.4944 19.8363 38.0445 20.4037C35.124 21.08 30.3979 19.729 30.3979 19.729" stroke="#7A9F64" stroke-width="2"/>
<path fill-rule="evenodd" clip-rule="evenodd" d="M46.2709 23.3832C46.1397 27.8729 46.1944 32.3298 46.2375 35.8359C46.2552 37.2782 46.2709 38.5596 46.2709 39.6161C46.2709 42.9776 45.7509 43.5482 45.1995 44.1534L45.1993 44.1536C45.1561 44.201 45.1128 44.2485 45.0695 44.2977C44.4727 44.9749 43.4648 45.546 42.0419 46.001C40.619 46.456 29.2565 46.6161 27.596 46.456C27.3431 46.4316 27.081 46.4126 26.8164 46.3934C25.3433 46.2867 23.7889 46.1741 23.2737 45.091C22.7176 43.9221 23.2954 40.2238 23.8138 36.9058C23.8621 36.5969 23.9099 36.2912 23.9561 35.9912C24.5129 32.3814 24.9637 30.357 26.1173 26.8915C26.236 26.5349 26.3497 26.1904 26.4599 25.8564L26.4605 25.8546C27.6382 22.2849 28.4231 19.906 30.781 16.6542C32.7715 13.909 35.9783 11.5083 38.004 9.99171L38.004 9.99171C38.7594 9.42617 39.3506 8.98359 39.6532 8.69195C40.1073 8.25435 40.588 7.66331 40.9983 7.11659C41.4722 6.48498 41.0105 5.62079 40.2209 5.62079H30.781C29.5304 5.62079 26.8073 8.67307 25.8925 9.6985L25.8925 9.69852L25.8326 9.76566C24.9832 10.7169 23.2498 13.3544 21.1125 17.4505C18.4788 22.4977 17.3591 25.5733 15.9938 31.1001C14.9362 35.3817 14.4057 41.7731 14.236 44.1534C14.1984 44.682 13.7629 45.091 13.233 45.091H3.93668C3.13751 45.091 1.62758 45.0161 0.751762 43.9535C-0.0628509 42.9652 0.35294 33.3137 0.680077 25.72L0.680088 25.7199C0.704666 25.1494 0.728745 24.5905 0.751762 24.0478C0.857594 21.5524 0.881321 18.6669 0.904503 15.8472C0.952366 10.0258 0.997921 4.48523 1.75891 3.23864C2.61605 1.83453 3.68996 1.70277 5.39458 1.49362C5.9364 1.42714 6.54195 1.35284 7.22451 1.22738C10.0544 0.707216 46.2712 0.1441 47.0228 1.71949C47.4926 2.70425 47.1803 7.5353 46.8182 13.1368C46.601 16.4963 46.3659 20.133 46.2709 23.3832ZM44.1726 28.8935C44.0252 24.7858 43.3704 20.7567 42.6774 18.475C41.9843 16.1933 40.5134 14.2868 38.0261 14.0969C35.5082 13.9046 33.8866 16.7715 32.9336 18.4564L32.9336 18.4565C32.7924 18.706 32.6659 18.9297 32.5534 19.1136C31.6809 20.5391 28.8209 26.1016 28.2664 27.7787C28.1681 28.0759 27.9961 28.484 27.7883 28.9767C26.8236 31.2647 25.0898 35.3769 26.4056 38.6766C27.3023 40.9254 28.8107 42.9391 30.2851 43.5119C32.9911 44.5632 40.6079 44.2936 42.7107 42.7248C44.6506 41.2776 44.4212 35.3495 44.2211 30.1781C44.2043 29.7436 44.1877 29.3143 44.1726 28.8935ZM17.606 16.3018C17.0869 17.6579 15.107 24.6489 14.9283 25.5126C14.7496 26.3762 13.4094 31.8264 12.0417 34.5475C10.6739 37.2687 6.86169 39.8109 5.19172 38.8266C3.72604 37.9628 3.41542 34.8546 3.18185 32.5173C3.14929 32.1915 3.11823 31.8807 3.08574 31.593C2.88722 29.8351 2.98554 23.4133 3.04781 19.3459C3.06883 17.9729 3.08574 16.8682 3.08574 16.3018C3.08574 14.0575 3.76505 9.09749 7.11456 6.96227C9.86903 5.20638 12.4425 4.94767 15.4469 6.22976C15.56 6.27802 15.6719 6.32533 15.7825 6.37209C17.4763 7.08809 18.8644 7.67484 19.3842 9.52606C19.8369 11.1385 18.7076 13.7373 17.9969 15.3728C17.8384 15.7376 17.7007 16.0545 17.606 16.3018Z" fill="#7A9F64"/>
<path d="M11.563 3.76935C11.563 3.76935 11.4934 9.38276 12.7823 12.6285C14.0533 15.8291 17.876 19.8267 17.876 19.8267M2.00137 17.1635C2.00137 17.1635 5.51587 25.0635 7.41944 27.4468C9.32618 29.8341 13.8327 34.3023 13.8327 34.3023" stroke="#7A9F64" stroke-width="2"/>
<path d="M37.8964 4.30084C37.8964 4.30084 31.9881 9.28407 29.0121 13.1852C22.5665 21.6344 19.8815 36.1914 19.4572 38.6649C19.0329 41.1384 18.7775 44.2347 18.7775 44.2347" stroke="#7A9F64" stroke-width="2.5" stroke-linecap="round"/>
</svg>
