<svg width="40" height="352" viewBox="0 0 40 352" fill="none" xmlns="http://www.w3.org/2000/svg">
<path d="M35.2801 13.5104C33.8231 13.5103 27.3991 19.0735 26.803 19.8683C26.207 20.6631 27.3991 21.2591 29.4521 21.4577C31.5052 21.6564 32.6311 20.1994 34.088 20.7292C35.545 21.2591 35.4127 24.0406 36.4061 24.6367C37.3994 25.2327 38.989 24.7029 39.7174 24.1069C40.4459 23.5108 39.3201 17.0205 39.1876 15.8946C39.0551 14.7687 36.7371 13.5104 35.2801 13.5104Z" fill="black"/>
<path d="M25.1118 4.02062C24.0449 5.01286 20.5776 11.8548 20.5776 13.9078C20.5776 15.9608 22.9787 17.6109 24.6174 16.3582C26.256 15.1055 26.1038 12.3266 27.5315 11.7223C28.9592 11.118 32.3803 11.6412 33.5137 11.4011C34.647 11.161 35.6102 10.3634 35.5776 8.75798C35.545 7.15258 30.4606 3.83959 29.5968 3.1054C28.733 2.3712 26.1787 3.02839 25.1118 4.02062Z" fill="black"/>
<path d="M5.59494 28.7425C7.04247 28.9083 13.1397 25.7559 13.8223 25.0341C14.505 24.3123 14.3064 21.9408 12.2893 21.5098C10.2722 21.0788 9.7789 21.9512 8.39167 21.2591C7.00443 20.5669 6.66139 18.2655 5.74227 17.5603C4.82316 16.8551 3.18367 17.2006 2.39211 17.7099C1.60054 18.2192 1.27228 24.5724 1.98415 25.9291C2.69601 27.2858 4.1474 28.5766 5.59494 28.7425Z" fill="black"/>
<path d="M6.90033 11.9823C7.29525 13.5753 13.0711 18.6503 14.1536 19.0736C15.2361 19.497 18.0152 18.3725 17.6889 16.0709C17.3626 13.7692 16.1863 12.6065 16.4053 10.8614C16.6242 9.11626 19.066 8.81215 19.4874 7.55484C19.9087 6.29753 18.8639 4.71191 17.9758 4.08671C17.0877 3.4615 10.8845 5.58176 9.65004 6.88773C8.41561 8.19371 6.50542 10.3894 6.90033 11.9823Z" fill="black"/>
<path d="M27.2666 40.2002C28.3262 36.9551 24.0876 29.3389 22.6306 29.2064C21.1735 29.0738 21.1074 29.3389 20.7762 30.0674C20.445 30.7959 21.1074 34.4384 20.5113 36.2928C19.9152 38.1472 16.5376 39.4055 16.2728 40.995C16.0079 42.5844 17.5311 43.8427 18.7232 44.0414C19.9153 44.2401 26.2069 43.4454 27.2666 40.2002Z" fill="black"/>
<path d="M13.2345 39.3814C16.32 37.9206 18.939 29.6073 18.0338 28.4578C17.1286 27.3084 16.8906 27.4425 16.1338 27.7026C15.377 27.9628 13.1865 30.9474 11.4298 31.789C9.67316 32.6305 6.43773 31.042 5.10116 31.9421C3.76458 32.8422 3.89743 34.8134 4.57245 35.8158C5.24747 36.8183 10.149 40.8422 13.2345 39.3814Z" fill="black"/>
<circle cx="24.9885" cy="346.96" r="4.33057" fill="black"/>
<path d="M26.9625 328.186C26.9625 331.623 27.8298 338.469 26.2259 339.949C24.622 341.429 20.5568 341.186 17.5647 338.093C14.5725 335 12.5769 326.933 13.2341 317.059C13.8912 307.185 17.1126 301.231 17.1126 296.282C17.1126 291.333 12.7807 286.692 14.2652 284.27C15.7497 281.848 22.0065 286.804 23.9575 289.838C25.9084 292.872 27.8298 302.353 28.2881 310.047C28.7464 317.742 26.9625 324.748 26.9625 328.186Z" fill="black"/>
<path d="M35.7411 321.626C35.2013 324.999 31.97 335.254 30.3745 333.42C28.779 331.586 32.8681 326.5 33.0972 321.626C33.3262 316.751 32.8589 302.266 32.3418 298.586C31.8247 294.906 26.4112 280.688 25.2914 273.532C24.1717 266.377 22.018 239.413 22.018 234.126C22.018 228.838 22.7734 178.517 22.7734 168.28V80.7802C22.7734 77.4075 16.4785 73.0048 16.4785 66.9313C16.4785 60.8578 24.8589 54.778 24.9138 52.2011C24.9687 49.6241 20.7798 47.2471 22.8993 45.1507C25.0189 43.0543 30.4533 49.5238 30.4533 53.5859C30.4533 57.6481 24.2842 62.7134 24.2842 66.4277C24.2842 70.1419 27.4317 76.555 27.4317 79.773V231.104C27.4317 237.632 35.2153 283.863 35.6152 289.144C36.0151 294.425 36.2809 318.253 35.7411 321.626Z" fill="black"/>
<ellipse cx="20.3645" cy="22.9492" rx="4.1228" ry="3.63293" fill="black"/>
<path d="M28.488 25.3591C27.7533 25.5224 25.4828 26.3488 25.4011 27.8999C25.3194 29.4511 29.5646 30.4162 30.2508 32.9325C30.9371 35.4488 29.3618 35.9592 29.1986 36.7756C29.0353 37.592 29.5625 39.5664 31.4402 39.5664C33.3179 39.5664 35.1003 38.7863 36.4729 36.9586C37.7458 35.2637 38.512 34.9431 38.3487 31.5143C38.1854 28.0854 29.2227 25.1958 28.488 25.3591Z" fill="black"/>
</svg>
