<svg width="25" height="67" viewBox="0 0 25 67" fill="none" xmlns="http://www.w3.org/2000/svg">
<path d="M16.6891 52.5268C18.6742 48.8787 20.1427 37.3975 20.894 38.1791C21.6453 38.9608 25.883 55.0786 24.7334 59.174C23.5838 63.2694 21.3016 67.1991 17.1393 66.7429C14.0059 66.3994 10.649 64.2792 11.1556 61.3255C11.6623 58.3718 14.704 56.1748 16.6891 52.5268Z" fill="black"/>
<path d="M11.8029 40.8677C14.2017 39.8125 17.2724 37.0303 18.3596 36.9485C19.4467 36.8667 18.656 47.9762 14.4033 52.6624C12.0984 55.2022 11.243 59.0958 7.03687 57.4443C2.83077 55.7928 2.3399 49.2697 3.29232 46.4282C4.24474 43.5867 9.40399 41.9229 11.8029 40.8677Z" fill="black"/>
<path d="M10.9785 33.7866C11.7068 34.1051 18.4901 35.414 19.0049 34.3853C19.5198 33.3565 15.0553 30.8491 13.4117 28.8292C11.768 26.8093 8.79237 21.4122 7.62677 21.2102C6.46117 21.0082 7.45702 26.7161 7.44737 28.5127C7.43772 30.3092 10.2502 33.4681 10.9785 33.7866Z" fill="black"/>
<path d="M2.82294 36.2029C4.0383 36.5611 9.63857 36.9266 9.98446 35.7603C10.3303 34.5941 6.90664 32.6354 6.41698 31.6766C5.92733 30.7177 6.68532 25.4251 5.05198 25.275C3.41864 25.1249 0.868251 29.8618 0.55854 31.5072C0.248828 33.1525 1.60759 35.8447 2.82294 36.2029Z" fill="black"/>
<path d="M9.05376 18.456C10.0396 20.4633 18.9543 31.3557 20.5354 31.7829C22.1165 32.21 22.4286 28.682 22.9673 27.6171C23.5059 26.5523 21.2793 16.5956 21.4221 14.2773C21.565 11.9589 25.4291 6.30813 24.81 4.31687C24.1909 2.32561 22.8423 0.99344 20.8535 0.554545C18.8647 0.115651 19.1719 0.260366 16.4471 0.576784C13.7223 0.893203 10.3523 4.18924 8.68432 9.4357C7.01636 14.6822 8.06789 16.4487 9.05376 18.456Z" fill="black"/>
</svg>
