<svg width="720px" height="720px" xmlns="http://www.w3.org/2000/svg">
  <line x1="0" y1="41" x2="320" y2="41" style="stroke:black;stroke-width:1" shape-rendering="crispEdges"/>
  <line x1="0" y1="81" x2="320" y2="81" style="stroke:black;stroke-width:1" shape-rendering="crispEdges"/>
  <line x1="0" y1="121" x2="320" y2="121" style="stroke:black;stroke-width:1" shape-rendering="crispEdges"/>
  <line x1="0" y1="161" x2="320" y2="161" style="stroke:black;stroke-width:1" shape-rendering="crispEdges"/>
  <line x1="0" y1="201" x2="320" y2="201" style="stroke:black;stroke-width:1" shape-rendering="crispEdges"/>
  <line x1="0" y1="241" x2="320" y2="241" style="stroke:black;stroke-width:1" shape-rendering="crispEdges"/>
  <line x1="0" y1="281" x2="320" y2="281" style="stroke:black;stroke-width:1" shape-rendering="crispEdges"/>

  <line x1="41" y1="0" x2="41" y2="320" style="stroke:black;stroke-width:1" shape-rendering="crispEdges"/>
  <line x1="81" y1="0" x2="81" y2="320" style="stroke:black;stroke-width:1" shape-rendering="crispEdges"/>
  <line x1="121" y1="0" x2="121" y2="320" style="stroke:black;stroke-width:1" shape-rendering="crispEdges"/>
  <line x1="161" y1="0" x2="161" y2="320" style="stroke:black;stroke-width:1" shape-rendering="crispEdges"/>
  <line x1="201" y1="0" x2="201" y2="320" style="stroke:black;stroke-width:1" shape-rendering="crispEdges"/>
  <line x1="241" y1="0" x2="241" y2="320" style="stroke:black;stroke-width:1" shape-rendering="crispEdges"/>
  <line x1="281" y1="0" x2="281" y2="320" style="stroke:black;stroke-width:1" shape-rendering="crispEdges"/>

  <circle cx="81" cy="81" r="2" stroke="black" fill="black" />
  <circle cx="81" cy="241" r="2" stroke="black" fill="black" />
  <circle cx="241" cy="81" r="2" stroke="black" fill="black" />
  <circle cx="241" cy="241" r="2" stroke="black" fill="black" />
  <circle cx="161" cy="161" r="2" stroke="black" fill="black" />

</svg>