<svg width="480" height="480" viewBox="0 0 480 480" fill="none" xmlns="http://www.w3.org/2000/svg">
<rect x="166" y="469" width="148" height="9" fill="#E8E2D0"/>
<rect x="166" y="2" width="148" height="9" fill="#E8E2D0"/>
<g clip-path="url(#clip0_195_2501)">
<path d="M6.66743 415.024C6.63484 415.713 7.16744 416.299 7.85703 416.331C8.54661 416.364 9.13206 415.831 9.16465 415.142L6.66743 415.024ZM14.1953 240.628L14.1905 239L11.6905 239L11.6953 240.637L14.1953 240.628ZM11.8945 285.625C12.1585 292.214 11.3843 321.746 10.497 344.974L12.9952 345.069C13.8807 321.888 14.6614 292.237 14.3925 285.525L11.8945 285.625ZM10.497 344.974C9.6913 366.067 9.70422 377.861 7.72379 398.795L10.2126 399.03C12.2018 378.004 12.1921 366.093 12.9952 345.069L10.497 344.974ZM7.72379 398.795C7.4338 401.86 7.16968 405.922 6.97845 409.206C6.88269 410.851 6.80499 412.304 6.7512 413.347C6.7243 413.869 6.70336 414.287 6.68916 414.576C6.68205 414.72 6.67663 414.832 6.67298 414.908C6.67115 414.946 6.66977 414.975 6.66884 414.994C6.66838 415.004 6.66803 415.011 6.66779 415.016C6.66767 415.019 6.66754 415.022 6.66754 415.022L6.66743 415.024C6.66743 415.024 6.66743 415.024 7.91604 415.083C9.16464 415.142 9.16465 415.142 9.16465 415.142L9.16472 415.14C9.16472 415.14 9.16486 415.137 9.16498 415.135C9.1652 415.13 9.16556 415.123 9.16601 415.113C9.16692 415.094 9.16828 415.066 9.17009 415.028C9.1737 414.953 9.17908 414.842 9.18613 414.699C9.20025 414.412 9.22107 413.995 9.24786 413.476C9.30143 412.437 9.37887 410.989 9.47423 409.351C9.66522 406.071 9.9272 402.048 10.2126 399.03L7.72379 398.795ZM11.6953 240.637C11.7531 255.731 11.8203 283.773 11.8945 285.625L14.3925 285.525C14.3207 283.733 14.2533 255.783 14.1953 240.628L11.6953 240.637Z" fill="#B1ADA7"/>
<path d="M14.0704 454.251C13.8457 454.905 14.1927 455.618 14.8454 455.842C15.4982 456.068 16.2095 455.72 16.4343 455.066L14.0704 454.251ZM22.2104 240.252L22.2099 239L19.7099 239.001L19.7104 240.253L22.2104 240.252ZM19.6513 316.08C19.4578 332.474 20.9847 357.371 21.3833 383.628L23.883 383.589C23.4809 357.103 21.9576 332.509 22.1512 316.11L19.6513 316.08ZM21.3833 383.628C21.5681 395.805 22.4391 402.422 21.7064 414.395L24.2017 414.548C24.9415 402.46 24.064 395.516 23.883 383.589L21.3833 383.628ZM21.7064 414.395C21.1656 423.232 20.9585 428.164 19.1635 436.719L21.6101 437.234C23.4478 428.476 23.6619 423.37 24.2017 414.548L21.7064 414.395ZM19.1635 436.719C18.4379 440.177 17.1691 444.551 16.0722 448.085C15.5254 449.846 15.0244 451.389 14.6602 452.492C14.4782 453.043 14.3304 453.484 14.2283 453.787C14.1772 453.938 14.1376 454.054 14.1108 454.133C14.0974 454.172 14.0872 454.202 14.0804 454.221C14.077 454.231 14.0745 454.239 14.0728 454.244C14.072 454.246 14.071 454.249 14.071 454.249L14.0704 454.251C14.0704 454.251 14.0704 454.251 15.2523 454.659C16.4343 455.066 16.4343 455.066 16.4343 455.066L16.4351 455.064C16.4351 455.064 16.4362 455.061 16.4372 455.058C16.439 455.053 16.4417 455.045 16.4453 455.034C16.4525 455.013 16.463 454.983 16.4767 454.942C16.5043 454.861 16.5447 454.742 16.5965 454.589C16.7002 454.281 16.8497 453.836 17.0336 453.279C17.4014 452.166 17.9072 450.608 18.4594 448.828C19.5606 445.281 20.859 440.814 21.6101 437.234L19.1635 436.719ZM19.7104 240.253C19.7225 268.798 19.7135 310.816 19.6513 316.08L22.1512 316.11C22.2135 310.826 22.2225 268.783 22.2104 240.252L19.7104 240.253Z" fill="#B1ADA7"/>
<path d="M33.8579 433.682C33.9266 434.37 34.5392 434.872 35.2261 434.803C35.9131 434.734 36.4142 434.121 36.3454 433.432L33.8579 433.682ZM27.4785 240.253V239H24.9785V240.253H27.4785ZM25.0734 322.22C25.2179 334.153 27.3586 356.678 27.9953 364.124L30.4861 363.91C29.8427 356.386 27.7163 334.002 27.5732 322.189L25.0734 322.22ZM27.9953 364.124C28.6303 371.55 29.7267 390.724 32.7317 422.205L35.2203 421.966C32.2137 390.468 31.1312 371.453 30.4861 363.91L27.9953 364.124ZM32.7317 422.205C32.9458 424.447 33.2273 427.317 33.4553 429.625C33.5693 430.779 33.67 431.793 33.7421 432.519C33.7782 432.882 33.8071 433.171 33.827 433.372C33.837 433.472 33.8447 433.549 33.8499 433.601C33.8525 433.627 33.8545 433.647 33.8559 433.661C33.8565 433.668 33.857 433.673 33.8574 433.677C33.8575 433.678 33.8577 433.679 33.8577 433.68C33.8578 433.68 33.8579 433.681 33.8579 433.682C33.8579 433.682 33.8579 433.682 35.1017 433.556C36.3454 433.432 36.3454 433.432 36.3454 433.432C36.3454 433.432 36.3454 433.431 36.3453 433.43C36.3452 433.43 36.3451 433.428 36.3449 433.427C36.3446 433.423 36.3441 433.418 36.3434 433.412C36.3421 433.398 36.3401 433.378 36.3375 433.352C36.3323 433.3 36.3246 433.222 36.3146 433.122C36.2947 432.923 36.2658 432.632 36.2298 432.27C36.1577 431.545 36.0571 430.531 35.9431 429.378C35.7152 427.07 35.434 424.205 35.2203 421.966L32.7317 422.205ZM24.9785 261.016C24.9948 293.251 25.0264 318.336 25.0734 322.22L27.5732 322.189C27.5264 318.325 27.4948 293.264 27.4785 261.015L24.9785 261.016ZM27.4785 261.015V240.253H24.9785V261.016L27.4785 261.015Z" fill="#B1ADA7"/>
<path d="M29.6444 255.857L30.6444 255.871V255.857H29.6444ZM75.8569 446.085C76.2713 446.451 76.9032 446.411 77.2683 445.995C77.6333 445.579 77.5933 444.945 77.1788 444.579L75.8569 446.085ZM30.6444 240.004V239H28.6444V240.004H30.6444ZM28.6445 255.843C28.5115 265.572 28.7397 305.16 32.7882 336.424L34.7716 336.165C30.7415 305.044 30.5118 265.57 30.6444 255.871L28.6445 255.843ZM32.7882 336.424C35.8422 360.007 35.8192 374.215 44.2406 396.707L46.1128 396.002C37.7976 373.793 37.85 359.936 34.7716 336.165L32.7882 336.424ZM44.2406 396.707C49.7223 411.347 52.5538 420.464 62.5666 432.74L64.1141 431.468C54.3459 419.492 51.6166 410.701 46.1128 396.002L44.2406 396.707ZM62.5666 432.74C64.9128 435.617 68.2445 438.959 70.9681 441.565C72.3341 442.871 73.555 444 74.4346 444.803C74.8745 445.204 75.2293 445.523 75.4745 445.743C75.5971 445.854 75.6923 445.939 75.757 445.996C75.7894 446.025 75.8142 446.047 75.8309 446.062C75.8393 446.07 75.8457 446.075 75.85 446.079C75.8522 446.081 75.8539 446.083 75.855 446.084C75.8556 446.084 75.8566 446.085 75.8569 446.085C75.8571 446.085 75.8568 446.085 75.8569 446.085C75.857 446.085 75.8569 446.085 76.5179 445.332C77.1788 444.579 77.1789 444.58 77.1788 444.579C77.1786 444.579 77.1781 444.578 77.1776 444.577C77.1766 444.577 77.1752 444.575 77.1732 444.574C77.1693 444.57 77.1633 444.565 77.1554 444.558C77.1394 444.544 77.1155 444.523 77.084 444.495C77.021 444.438 76.9277 444.355 76.807 444.247C76.5656 444.03 76.2151 443.714 75.7798 443.317C74.909 442.522 73.7 441.405 72.3479 440.111C69.6352 437.516 66.3782 434.244 64.1141 431.468L62.5666 432.74ZM30.6444 255.857V240.004H28.6444V255.857H30.6444Z" fill="#B1ADA7"/>
<path fill-rule="evenodd" clip-rule="evenodd" d="M5.65971 421.376C6.30731 414.793 6.99206 407.832 7.58516 401.561L10.1827 397.324C10.1827 397.324 8.38725 443.014 8.38725 446.101C8.38725 449.188 9.00932 455.553 12.7262 459.716C15.4633 462.781 18.3169 463.579 21.7911 464.55C22.847 464.845 23.9601 465.156 25.1447 465.551C31.3956 467.639 35.1789 468.076 41.7526 468.544C48.7952 469.044 53.1384 468.489 59.5421 467.671L59.5503 467.67L59.5525 467.669L59.5731 467.667C60.3798 467.564 61.2193 467.456 62.101 467.347C65.9542 466.867 68.5353 466.382 71.7051 465.788L71.7076 465.787C72.8316 465.576 74.0298 465.351 75.385 465.108C77.0419 464.81 78.5598 464.544 79.9916 464.293L80.0108 464.289L80.0388 464.284H80.0402C85.9926 463.24 90.4632 462.455 97.2667 460.772C104.268 459.041 109.526 457.012 114.793 454.98C120.002 452.97 125.22 450.957 132.14 449.226C133.193 448.962 134.127 448.714 135.003 448.482H135.005L135.006 448.481C137.568 447.802 139.639 447.253 142.784 446.811C145.837 446.381 149.566 445.871 150.655 446.184C151.743 446.498 152.701 447.163 152.443 448.599C152.317 449.303 151.833 449.907 151.314 450.556C150.772 451.233 150.192 451.957 149.939 452.893C149.529 454.408 149.459 455.797 149.372 457.503V457.507C149.354 457.862 149.336 458.231 149.313 458.617C149.297 458.899 149.28 459.184 149.262 459.472C149.013 463.643 148.732 468.34 149.76 469.797C150.738 471.184 152.532 471.903 154.549 472.712C154.798 472.812 155.051 472.913 155.306 473.017C158.154 474.18 159.744 474.717 162.998 474.717H240V479.365H159.773C156.368 479.365 142.914 478.434 141.642 478.128C140.507 477.856 138.684 477.286 136.763 476.687L136.065 476.469C130.746 474.811 127.766 473.847 122.586 471.796C117.924 469.95 112.266 467.056 108.202 464.977C105.372 463.529 103.314 462.477 102.908 462.451C101.917 462.388 90.3186 466.005 90.3186 466.005C82.5799 468.076 78.23 469.22 70.3942 470.888C59.4732 473.213 53.2973 474.402 42.2006 475.641C29.8787 477.017 11.4074 477.922 10.4908 477.204C9.57432 476.486 6.32263 467.449 5.347 464.247C4.37136 461.045 3.05926 451.663 3.2634 447.252C3.39581 444.391 4.46449 433.527 5.65971 421.376ZM127.868 470.201C125.344 469.243 108.98 462.019 109.85 460.626C110.721 459.233 115.334 457.318 117.249 456.535C119.164 455.752 136.747 450.268 139.097 450.355C141.447 450.442 142.927 451.225 143.884 452.27C144.842 453.314 144.842 455.665 144.755 457.58C144.745 457.797 144.735 458.096 144.723 458.456V458.46C144.63 461.274 144.412 467.855 143.101 469.243C141.621 470.81 139.445 471.594 137.008 471.681C134.571 471.768 130.393 471.158 127.868 470.201ZM18.8136 468.913C18.0599 468.681 15.4512 469.319 14.7555 470.015C14.0599 470.71 13.3062 472.508 13.5961 473.319C13.8859 474.131 22.06 474.073 24.089 474.015C26.118 473.957 34.5282 473.379 41.1907 472.681C42.5491 472.539 43.8585 472.431 45.1118 472.328C48.2545 472.068 51.0439 471.837 53.3648 471.174C56.2633 470.346 38.8284 471.043 33.8204 471.243C33.2193 471.267 32.7973 471.284 32.6109 471.29C30.8717 471.348 22.9293 470.969 22.1177 470.564C21.8744 470.442 21.5478 470.266 21.1895 470.073C20.3522 469.621 19.3413 469.076 18.8136 468.913Z" fill="#B1ADA7"/>
<path fill-rule="evenodd" clip-rule="evenodd" d="M240 472.375C240 472.375 169.533 472.375 167.168 472.375C164.803 472.375 162.673 471.565 159.983 470.543L159.792 470.47C159.198 470.244 158.644 470.065 158.121 469.896C156.506 469.374 155.179 468.945 153.831 467.52C152.384 465.992 151.823 464.781 151.372 462.726C150.785 460.045 151.572 458.207 152.535 455.958C152.798 455.344 153.074 454.7 153.339 453.999C153.725 452.979 154.303 452.221 154.855 451.498C155.651 450.455 156.39 449.486 156.412 447.914C156.414 447.782 156.417 447.68 156.419 447.594C156.423 447.465 156.425 447.377 156.421 447.288C156.412 447.093 156.371 446.899 156.239 446.278L156.238 446.27C156.201 446.096 156.157 445.89 156.105 445.64C155.723 443.815 149.841 442.276 148.343 442.025C146.845 441.775 135.969 440.35 127.994 440.284C116.66 440.189 110.245 441.053 99.1198 443.217C93.6407 444.282 90.5696 444.958 85.2256 446.569C80.5992 447.964 77.4789 449.257 73.8516 450.76C72.2068 451.442 70.4578 452.167 68.4168 452.964C66.4253 453.742 64.6932 454.35 63.0613 454.923C59.7074 456.102 56.7764 457.132 52.8869 459.176C50.3665 460.5 48.989 461.318 46.5921 462.854C45.8807 463.31 45.1892 463.863 44.5488 464.375C43.5716 465.156 42.7133 465.842 42.0846 465.945C41.0439 466.115 33.5781 465.497 28.4334 463.885C24.1816 462.552 16.0125 459.706 18.0663 459.12C19.2036 458.795 21.6616 458.502 24.5399 458.158C26.8595 457.882 29.452 457.572 31.8462 457.188C32.3572 457.106 32.8434 457.028 33.3103 456.954C37.0597 456.355 39.563 455.955 43.6275 455.088C47.863 454.185 50.7002 453.397 54.1515 452.438C55.4294 452.083 56.7918 451.705 58.3402 451.288C60.29 450.764 62.8426 450.145 65.3502 449.538C70.8921 448.194 76.2138 446.904 74.3196 446.806C72.4642 446.71 68.7601 447.481 64.6679 448.333C62.6919 448.744 60.6249 449.174 58.6325 449.534C55.861 450.036 53.6172 450.48 51.4483 450.909C48.5485 451.483 45.7826 452.03 42.0686 452.652C41.1296 452.81 40.2507 452.959 39.4143 453.1L39.4102 453.101C34.5051 453.932 31.0598 454.516 25.5046 455.088C21.5188 455.499 15.2739 455.868 15.2739 455.868L16.2483 451.775C16.2483 451.775 23.1929 448.867 26.1867 445.345C28.3436 442.807 29.0705 440.77 30.0889 437.915C30.2413 437.489 30.4001 437.043 30.5712 436.576C32.7566 430.601 32.6002 419.014 32.6002 419.014L35.0194 422.124C35.0194 422.124 36.0588 428.079 37.3917 431.217C37.9653 432.567 41.0142 433.659 43.2691 434.467C43.7215 434.629 44.1424 434.78 44.5045 434.919C46.6711 435.751 50.8916 437.078 55.1249 437.842C59.4846 438.629 61.9977 438.889 66.4274 438.817C69.446 438.767 71.3191 438.506 73.9931 438.133C74.4345 438.071 74.8976 438.007 75.3914 437.94C78.8932 437.463 81.5127 436.818 84.2003 436.156C86.4785 435.595 88.8056 435.022 91.7605 434.529C100.237 433.116 105.057 432.689 113.628 432.062L113.777 432.051C121.304 431.501 125.589 431.187 133.179 431.318C133.699 431.326 134.204 431.335 134.694 431.343C141.074 431.447 145.121 431.513 151.799 432.621C156.063 433.329 158.429 433.902 162.599 435.042C163.933 435.406 165.571 435.715 167.188 436.019C171.026 436.742 174.739 437.442 173.951 438.812C173.278 439.982 172.152 440.722 170.908 441.54C170.082 442.083 169.204 442.66 168.371 443.421C168.14 443.631 167.915 443.837 167.694 444.038L167.69 444.041C163.949 447.45 161.576 449.612 158.767 454.1C158.261 454.907 157.681 455.608 157.128 456.277C155.783 457.904 154.6 459.335 155.058 461.607C155.428 463.442 156.338 464.795 157.591 465.677C158.844 466.559 167.576 467.848 170.073 467.848H240V472.375ZM36.2238 437.991C34.5047 439.326 33.7158 441.01 34.1134 443.15C34.4662 445.048 35.8768 446.476 37.24 446.98C38.6033 447.483 42.4102 448.082 45.7598 447.996C49.7754 447.893 54.6705 446.793 55.8429 445.964L55.9568 445.883C57.0958 445.08 58.2849 444.241 58.4362 442.274C58.5101 441.314 55.1007 440.49 51.7837 439.688L51.7368 439.677C47.7539 438.714 43.684 437.847 42.6333 437.678C42.1778 437.605 41.74 437.518 41.3163 437.433C39.4381 437.057 37.8387 436.737 36.2238 437.991ZM99.0409 436.318C98.511 436.397 97.9485 436.48 97.3613 436.566C89.6165 437.709 77.5918 439.484 79.9335 440.022C81.9321 440.482 84.5395 440.259 87.446 440.01C88.2033 439.946 88.981 439.879 89.7734 439.823C91.8988 439.671 93.4308 439.462 95.1085 439.233C96.1131 439.096 97.17 438.952 98.4378 438.809L99.6073 438.677C104.465 438.127 107.524 437.781 112.695 437.292C114.379 437.133 115.845 436.969 117.222 436.816C120.537 436.446 123.334 436.134 127.408 436.079C133.459 435.997 136.908 436 142.878 436.989C143.239 437.048 143.586 437.105 143.923 437.16L143.925 437.161C147.518 437.749 149.868 438.133 153.496 439.567C156.477 440.746 158.417 441.756 160.776 443.359C163.135 444.963 160.253 440.601 158.956 439.719C157.659 438.836 151.58 436.543 146.002 435.306C138.378 433.614 132.814 433.791 125.497 434.022C124.596 434.051 123.668 434.08 122.706 434.107C113.427 434.366 108.223 434.957 99.0409 436.318Z" fill="#B1ADA7"/>
<path d="M62.5915 432.343L64.9719 432.252C64.9719 432.252 65.7714 433.415 67.0319 434.495C68.188 435.486 69.946 437.055 71.1625 437.551C72.379 438.047 76.4162 437.837 76.4162 437.837L72.301 443.243L62.1382 438.788C62.1382 438.788 64.5227 438.662 65.0429 437.228C65.5631 435.793 62.5915 432.343 62.5915 432.343Z" fill="#B1ADA7"/>
<path d="M95.4292 457.265L82.9119 450.03C82.9119 450.03 81.4334 449.471 80.4412 449.313C79.1419 449.107 77.0605 449.385 77.0605 449.385L80.041 445.321L91.9434 444.706C91.9434 444.706 87.382 446.278 86.7576 446.811C86.1332 447.345 85.8571 448.607 86.4719 448.996C87.0866 449.385 96.4628 455.427 96.4628 455.427C96.4628 455.427 101.183 457.292 102.664 457.494C104.144 457.697 108.531 457.381 108.531 457.381L106.798 460.135L95.2878 461.286C95.2878 461.286 97.9283 460.049 97.9557 459.332C97.9831 458.615 95.4292 457.265 95.4292 457.265Z" fill="#B1ADA7"/>
</g>
<g clip-path="url(#clip1_195_2501)">
<path d="M6.66743 64.976C6.63484 64.287 7.16744 63.701 7.85703 63.669C8.54661 63.636 9.13206 64.169 9.16465 64.858L6.66743 64.976ZM14.1953 239.372L14.1905 241L11.6905 241L11.6953 239.363L14.1953 239.372ZM11.8945 194.375C12.1585 187.786 11.3843 158.254 10.497 135.026L12.9952 134.931C13.8807 158.112 14.6614 187.763 14.3925 194.475L11.8945 194.375ZM10.497 135.026C9.6913 113.933 9.70422 102.139 7.72379 81.205L10.2126 80.97C12.2018 101.996 12.1921 113.907 12.9952 134.931L10.497 135.026ZM7.72379 81.205C7.4338 78.14 7.16968 74.078 6.97845 70.794C6.88269 69.149 6.80499 67.696 6.7512 66.653C6.7243 66.131 6.70336 65.713 6.68916 65.424C6.68205 65.28 6.67663 65.168 6.67298 65.092C6.67115 65.054 6.66977 65.025 6.66884 65.006C6.66838 64.996 6.66803 64.989 6.66779 64.984C6.66767 64.981 6.66754 64.978 6.66754 64.978L6.66743 64.976C6.66743 64.976 6.66743 64.976 7.91604 64.917C9.16464 64.858 9.16465 64.858 9.16465 64.858L9.16472 64.86C9.16472 64.86 9.16486 64.863 9.16498 64.865C9.1652 64.87 9.16556 64.877 9.16601 64.887C9.16692 64.906 9.16828 64.934 9.17009 64.972C9.1737 65.047 9.17908 65.158 9.18613 65.301C9.20025 65.588 9.22107 66.005 9.24786 66.524C9.30143 67.563 9.37887 69.011 9.47423 70.649C9.66522 73.929 9.9272 77.952 10.2126 80.97L7.72379 81.205ZM11.6953 239.363C11.7531 224.269 11.8203 196.227 11.8945 194.375L14.3925 194.475C14.3207 196.267 14.2533 224.217 14.1953 239.372L11.6953 239.363Z" fill="#B1ADA7"/>
<path d="M14.0704 25.749C13.8457 25.095 14.1927 24.382 14.8454 24.158C15.4982 23.932 16.2095 24.28 16.4343 24.934L14.0704 25.749ZM22.2104 239.748L22.2099 241L19.7099 240.999L19.7104 239.747L22.2104 239.748ZM19.6513 163.92C19.4578 147.526 20.9847 122.629 21.3833 96.372L23.883 96.411C23.4809 122.897 21.9576 147.491 22.1512 163.89L19.6513 163.92ZM21.3833 96.372C21.5681 84.195 22.4391 77.578 21.7064 65.605L24.2017 65.452C24.9415 77.54 24.064 84.484 23.883 96.411L21.3833 96.372ZM21.7064 65.605C21.1656 56.768 20.9585 51.836 19.1635 43.281L21.6101 42.766C23.4478 51.524 23.6619 56.63 24.2017 65.452L21.7064 65.605ZM19.1635 43.281C18.4379 39.823 17.1691 35.449 16.0722 31.915C15.5254 30.154 15.0244 28.611 14.6602 27.508C14.4782 26.957 14.3304 26.516 14.2283 26.213C14.1772 26.062 14.1376 25.946 14.1108 25.867C14.0974 25.828 14.0872 25.798 14.0804 25.779C14.077 25.769 14.0745 25.761 14.0728 25.756C14.072 25.754 14.071 25.751 14.071 25.751L14.0704 25.749C14.0704 25.749 14.0704 25.749 15.2523 25.341C16.4343 24.934 16.4343 24.934 16.4343 24.934L16.4351 24.936C16.4351 24.936 16.4362 24.939 16.4372 24.942C16.439 24.947 16.4417 24.955 16.4453 24.966C16.4525 24.987 16.463 25.017 16.4767 25.058C16.5043 25.139 16.5447 25.258 16.5965 25.411C16.7002 25.719 16.8497 26.164 17.0336 26.721C17.4014 27.834 17.9072 29.392 18.4594 31.172C19.5606 34.719 20.859 39.186 21.6101 42.766L19.1635 43.281ZM19.7104 239.747C19.7225 211.202 19.7135 169.184 19.6513 163.92L22.1512 163.89C22.2135 169.174 22.2225 211.217 22.2104 239.748L19.7104 239.747Z" fill="#B1ADA7"/>
<path d="M33.8579 46.318C33.9266 45.63 34.5392 45.128 35.2261 45.197C35.9131 45.266 36.4142 45.879 36.3454 46.568L33.8579 46.318ZM27.4785 239.747V241H24.9785V239.747H27.4785ZM25.0734 157.78C25.2179 145.847 27.3586 123.322 27.9953 115.876L30.4861 116.09C29.8427 123.614 27.7163 145.998 27.5732 157.811L25.0734 157.78ZM27.9953 115.876C28.6303 108.45 29.7267 89.276 32.7317 57.795L35.2203 58.034C32.2137 89.532 31.1312 108.547 30.4861 116.09L27.9953 115.876ZM32.7317 57.795C32.9458 55.553 33.2273 52.683 33.4553 50.375C33.5693 49.221 33.67 48.207 33.7421 47.481C33.7782 47.118 33.8071 46.829 33.827 46.628C33.837 46.528 33.8447 46.451 33.8499 46.399C33.8525 46.373 33.8545 46.353 33.8559 46.339C33.8565 46.332 33.857 46.327 33.8574 46.323C33.8575 46.322 33.8577 46.321 33.8577 46.32C33.8578 46.32 33.8579 46.319 33.8579 46.318C33.8579 46.318 33.8579 46.318 35.1017 46.444C36.3454 46.568 36.3454 46.568 36.3454 46.568C36.3454 46.568 36.3454 46.569 36.3453 46.57C36.3452 46.57 36.3451 46.572 36.3449 46.573C36.3446 46.577 36.3441 46.582 36.3434 46.588C36.3421 46.602 36.3401 46.622 36.3375 46.648C36.3323 46.7 36.3246 46.778 36.3146 46.878C36.2947 47.077 36.2658 47.368 36.2298 47.73C36.1577 48.455 36.0571 49.469 35.9431 50.622C35.7152 52.93 35.434 55.795 35.2203 58.034L32.7317 57.795ZM24.9785 218.984C24.9948 186.749 25.0264 161.664 25.0734 157.78L27.5732 157.811C27.5264 161.675 27.4948 186.736 27.4785 218.985L24.9785 218.984ZM27.4785 218.985V239.747H24.9785V218.984L27.4785 218.985Z" fill="#B1ADA7"/>
<path d="M29.6444 224.143L30.6444 224.129V224.143H29.6444ZM75.8569 33.915C76.2713 33.549 76.9032 33.589 77.2683 34.005C77.6333 34.421 77.5933 35.055 77.1788 35.421L75.8569 33.915ZM30.6444 239.996V241H28.6444V239.996H30.6444ZM28.6445 224.157C28.5115 214.428 28.7397 174.84 32.7882 143.576L34.7716 143.835C30.7415 174.956 30.5118 214.43 30.6444 224.129L28.6445 224.157ZM32.7882 143.576C35.8422 119.993 35.8192 105.785 44.2406 83.293L46.1128 83.998C37.7976 106.207 37.85 120.064 34.7716 143.835L32.7882 143.576ZM44.2406 83.293C49.7223 68.653 52.5538 59.536 62.5666 47.26L64.1141 48.532C54.3459 60.508 51.6166 69.299 46.1128 83.998L44.2406 83.293ZM62.5666 47.26C64.9128 44.383 68.2445 41.041 70.9681 38.435C72.3341 37.129 73.555 36 74.4346 35.197C74.8745 34.796 75.2293 34.477 75.4745 34.257C75.5971 34.146 75.6923 34.061 75.757 34.004C75.7894 33.975 75.8142 33.953 75.8309 33.938C75.8393 33.93 75.8457 33.925 75.85 33.921C75.8522 33.919 75.8539 33.917 75.855 33.916C75.8556 33.916 75.8566 33.915 75.8569 33.915C75.8571 33.915 75.8568 33.915 75.8569 33.915C75.857 33.915 75.8569 33.915 76.5179 34.668C77.1788 35.421 77.1789 35.42 77.1788 35.421C77.1786 35.421 77.1781 35.422 77.1776 35.423C77.1766 35.423 77.1752 35.425 77.1732 35.426C77.1693 35.43 77.1633 35.435 77.1554 35.442C77.1394 35.456 77.1155 35.477 77.084 35.505C77.021 35.562 76.9277 35.645 76.807 35.753C76.5656 35.97 76.2151 36.286 75.7798 36.683C74.909 37.478 73.7 38.595 72.3479 39.889C69.6352 42.484 66.3782 45.756 64.1141 48.532L62.5666 47.26ZM30.6444 224.143V239.996H28.6444V224.143H30.6444Z" fill="#B1ADA7"/>
<path fill-rule="evenodd" clip-rule="evenodd" d="M5.65971 58.624C6.30731 65.207 6.99206 72.168 7.58516 78.439L10.1827 82.676C10.1827 82.676 8.38725 36.986 8.38725 33.899C8.38725 30.812 9.00932 24.447 12.7262 20.284C15.4633 17.219 18.3169 16.421 21.7911 15.45C22.847 15.155 23.9601 14.844 25.1447 14.449C31.3956 12.361 35.1789 11.924 41.7526 11.456C48.7952 10.956 53.1384 11.511 59.5421 12.329L59.5503 12.33L59.5525 12.331L59.5731 12.333C60.3798 12.436 61.2193 12.544 62.101 12.653C65.9542 13.133 68.5353 13.618 71.7051 14.212L71.7076 14.213C72.8316 14.424 74.0298 14.649 75.385 14.892C77.0419 15.19 78.5598 15.456 79.9916 15.707L80.0108 15.711L80.0388 15.716H80.0402C85.9926 16.76 90.4632 17.545 97.2667 19.228C104.268 20.959 109.526 22.988 114.793 25.02C120.002 27.03 125.22 29.043 132.14 30.774C133.193 31.038 134.127 31.286 135.003 31.518H135.005L135.006 31.519C137.568 32.198 139.639 32.747 142.784 33.189C145.837 33.619 149.566 34.129 150.655 33.816C151.743 33.502 152.701 32.837 152.443 31.401C152.317 30.697 151.833 30.093 151.314 29.444C150.772 28.767 150.192 28.043 149.939 27.107C149.529 25.592 149.459 24.203 149.372 22.497V22.493C149.354 22.138 149.336 21.769 149.313 21.383C149.297 21.101 149.28 20.816 149.262 20.528C149.013 16.357 148.732 11.66 149.76 10.203C150.738 8.81601 152.532 8.097 154.549 7.288C154.798 7.188 155.051 7.08701 155.306 6.98301C158.154 5.82001 159.744 5.28303 162.998 5.28303H240V0.635025H159.773C156.368 0.635025 142.914 1.56602 141.642 1.87202C140.507 2.14402 138.684 2.71403 136.763 3.31303L136.065 3.53102C130.746 5.18902 127.766 6.15302 122.586 8.20402C117.924 10.05 112.266 12.944 108.202 15.023C105.372 16.471 103.314 17.523 102.908 17.549C101.917 17.612 90.3186 13.995 90.3186 13.995C82.5799 11.924 78.23 10.78 70.3942 9.11201C59.4732 6.78701 53.2973 5.59802 42.2006 4.35902C29.8787 2.98302 11.4074 2.07804 10.4908 2.79604C9.57432 3.51404 6.32263 12.551 5.347 15.753C4.37136 18.955 3.05926 28.337 3.2634 32.748C3.39581 35.609 4.46449 46.473 5.65971 58.624ZM127.868 9.79902C125.344 10.757 108.98 17.981 109.85 19.374C110.721 20.767 115.334 22.682 117.249 23.465C119.164 24.248 136.747 29.732 139.097 29.645C141.447 29.558 142.927 28.775 143.884 27.73C144.842 26.686 144.842 24.335 144.755 22.42C144.745 22.203 144.735 21.904 144.723 21.544V21.54C144.63 18.726 144.412 12.145 143.101 10.757C141.621 9.19003 139.445 8.40601 137.008 8.31901C134.571 8.23201 130.393 8.84202 127.868 9.79902ZM18.8136 11.087C18.0599 11.319 15.4512 10.681 14.7555 9.98502C14.0599 9.29002 13.3062 7.49201 13.5961 6.68101C13.8859 5.86901 22.06 5.92702 24.089 5.98502C26.118 6.04302 34.5282 6.62101 41.1907 7.31901C42.5491 7.46101 43.8585 7.569 45.1118 7.672C48.2545 7.932 51.0439 8.16303 53.3648 8.82603C56.2633 9.65403 38.8284 8.95703 33.8204 8.75703C33.2193 8.73303 32.7973 8.71603 32.6109 8.71003C30.8717 8.65203 22.9293 9.03101 22.1177 9.43601C21.8744 9.55801 21.5478 9.73401 21.1895 9.92701C20.3522 10.379 19.3413 10.924 18.8136 11.087Z" fill="#B1ADA7"/>
<path fill-rule="evenodd" clip-rule="evenodd" d="M240 7.62497C240 7.62497 169.533 7.62497 167.168 7.62497C164.803 7.62497 162.673 8.43497 159.983 9.45697L159.792 9.52997C159.198 9.75597 158.644 9.93497 158.121 10.104C156.506 10.626 155.179 11.055 153.831 12.48C152.384 14.008 151.823 15.219 151.372 17.274C150.785 19.955 151.572 21.793 152.535 24.042C152.798 24.656 153.074 25.3 153.339 26.001C153.725 27.021 154.303 27.779 154.855 28.502C155.651 29.545 156.39 30.514 156.412 32.086C156.414 32.218 156.417 32.32 156.419 32.406C156.423 32.535 156.425 32.623 156.421 32.712C156.412 32.907 156.371 33.101 156.239 33.722L156.238 33.73C156.201 33.904 156.157 34.11 156.105 34.36C155.723 36.185 149.841 37.724 148.343 37.975C146.845 38.225 135.969 39.65 127.994 39.716C116.66 39.811 110.245 38.947 99.1198 36.783C93.6407 35.718 90.5696 35.042 85.2256 33.431C80.5992 32.036 77.4789 30.743 73.8516 29.24C72.2068 28.558 70.4578 27.833 68.4168 27.036C66.4253 26.258 64.6932 25.65 63.0613 25.077C59.7074 23.898 56.7764 22.868 52.8869 20.824C50.3665 19.5 48.989 18.682 46.5921 17.146C45.8807 16.69 45.1892 16.137 44.5488 15.625C43.5716 14.844 42.7133 14.158 42.0846 14.055C41.0439 13.885 33.5781 14.503 28.4334 16.115C24.1816 17.448 16.0125 20.294 18.0663 20.88C19.2036 21.205 21.6616 21.498 24.5399 21.842C26.8595 22.118 29.452 22.428 31.8462 22.812C32.3572 22.894 32.8434 22.972 33.3103 23.046C37.0597 23.645 39.563 24.045 43.6275 24.912C47.863 25.815 50.7002 26.603 54.1515 27.562C55.4294 27.917 56.7918 28.295 58.3402 28.712C60.29 29.236 62.8426 29.855 65.3502 30.462C70.8921 31.806 76.2138 33.096 74.3196 33.194C72.4642 33.29 68.7601 32.519 64.6679 31.667C62.6919 31.256 60.6249 30.826 58.6325 30.466C55.861 29.964 53.6172 29.52 51.4483 29.091C48.5485 28.517 45.7826 27.97 42.0686 27.348C41.1296 27.19 40.2507 27.041 39.4143 26.9L39.4102 26.899C34.5051 26.068 31.0598 25.484 25.5046 24.912C21.5188 24.501 15.2739 24.132 15.2739 24.132L16.2483 28.225C16.2483 28.225 23.1929 31.133 26.1867 34.655C28.3436 37.193 29.0705 39.23 30.0889 42.085C30.2413 42.511 30.4001 42.957 30.5712 43.424C32.7566 49.399 32.6002 60.986 32.6002 60.986L35.0194 57.876C35.0194 57.876 36.0588 51.921 37.3917 48.783C37.9653 47.433 41.0142 46.341 43.2691 45.533C43.7215 45.371 44.1424 45.22 44.5045 45.081C46.6711 44.249 50.8916 42.922 55.1249 42.158C59.4846 41.371 61.9977 41.111 66.4274 41.183C69.446 41.233 71.3191 41.494 73.9931 41.867C74.4345 41.929 74.8976 41.993 75.3914 42.06C78.8932 42.537 81.5127 43.182 84.2003 43.844C86.4785 44.405 88.8056 44.978 91.7605 45.471C100.237 46.884 105.057 47.311 113.628 47.938L113.777 47.949C121.304 48.499 125.589 48.813 133.179 48.682C133.699 48.674 134.204 48.665 134.694 48.657C141.074 48.553 145.121 48.487 151.799 47.379C156.063 46.671 158.429 46.098 162.599 44.958C163.933 44.594 165.571 44.285 167.188 43.981C171.026 43.258 174.739 42.558 173.951 41.188C173.278 40.018 172.152 39.278 170.908 38.46C170.082 37.917 169.204 37.34 168.371 36.579C168.14 36.369 167.915 36.163 167.694 35.962L167.69 35.959C163.949 32.55 161.576 30.388 158.767 25.9C158.261 25.093 157.681 24.392 157.128 23.723C155.783 22.096 154.6 20.665 155.058 18.393C155.428 16.558 156.338 15.205 157.591 14.323C158.844 13.441 167.576 12.152 170.073 12.152H240V7.62497ZM36.2238 42.009C34.5047 40.674 33.7158 38.99 34.1134 36.85C34.4662 34.952 35.8768 33.524 37.24 33.02C38.6033 32.517 42.4102 31.918 45.7598 32.004C49.7754 32.107 54.6705 33.207 55.8429 34.036L55.9568 34.117C57.0958 34.92 58.2849 35.759 58.4362 37.726C58.5101 38.686 55.1007 39.51 51.7837 40.312L51.7368 40.323C47.7539 41.286 43.684 42.153 42.6333 42.322C42.1778 42.395 41.74 42.482 41.3163 42.567C39.4381 42.943 37.8387 43.263 36.2238 42.009ZM99.0409 43.682C98.511 43.603 97.9485 43.52 97.3613 43.434C89.6165 42.291 77.5918 40.516 79.9335 39.978C81.9321 39.518 84.5395 39.741 87.446 39.99C88.2033 40.054 88.981 40.121 89.7734 40.177C91.8988 40.329 93.4308 40.538 95.1085 40.767C96.1131 40.904 97.17 41.048 98.4378 41.191L99.6073 41.323C104.465 41.873 107.524 42.219 112.695 42.708C114.379 42.867 115.845 43.031 117.222 43.184C120.537 43.554 123.334 43.866 127.408 43.921C133.459 44.003 136.908 44 142.878 43.011C143.239 42.952 143.586 42.895 143.923 42.84L143.925 42.839C147.518 42.251 149.868 41.867 153.496 40.433C156.477 39.254 158.417 38.244 160.776 36.641C163.135 35.037 160.253 39.399 158.956 40.281C157.659 41.164 151.58 43.457 146.002 44.694C138.378 46.386 132.814 46.209 125.497 45.978C124.596 45.949 123.668 45.92 122.706 45.893C113.427 45.634 108.223 45.043 99.0409 43.682Z" fill="#B1ADA7"/>
<path d="M62.5915 47.657L64.9719 47.748C64.9719 47.748 65.7714 46.5851 67.0319 45.5051C68.188 44.5141 69.946 42.9451 71.1625 42.4491C72.379 41.9531 76.4162 42.163 76.4162 42.163L72.301 36.757L62.1382 41.2121C62.1382 41.2121 64.5227 41.338 65.0429 42.772C65.5631 44.207 62.5915 47.657 62.5915 47.657Z" fill="#B1ADA7"/>
<path d="M95.4292 22.7349L82.9119 29.9699C82.9119 29.9699 81.4334 30.5289 80.4412 30.6869C79.1419 30.8929 77.0605 30.6149 77.0605 30.6149L80.041 34.6789L91.9434 35.2939C91.9434 35.2939 87.382 33.7219 86.7576 33.1889C86.1332 32.6549 85.8571 31.3929 86.4719 31.0039C87.0866 30.6149 96.4628 24.5729 96.4628 24.5729C96.4628 24.5729 101.183 22.7079 102.664 22.5059C104.144 22.3029 108.531 22.6189 108.531 22.6189L106.798 19.8649L95.2878 18.7139C95.2878 18.7139 97.9283 19.9509 97.9557 20.6679C97.9831 21.3849 95.4292 22.7349 95.4292 22.7349Z" fill="#B1ADA7"/>
</g>
<g clip-path="url(#clip2_195_2501)">
<path d="M473.333 415.024C473.365 415.713 472.833 416.299 472.143 416.331C471.453 416.364 470.868 415.831 470.835 415.142L473.333 415.024ZM465.805 240.628L465.809 239L468.309 239L468.305 240.637L465.805 240.628ZM468.105 285.625C467.841 292.214 468.616 321.746 469.503 344.974L467.005 345.069C466.119 321.888 465.339 292.237 465.607 285.525L468.105 285.625ZM469.503 344.974C470.309 366.067 470.296 377.861 472.276 398.795L469.787 399.03C467.798 378.004 467.808 366.093 467.005 345.069L469.503 344.974ZM472.276 398.795C472.566 401.86 472.83 405.922 473.022 409.206C473.117 410.851 473.195 412.304 473.249 413.347C473.276 413.869 473.297 414.287 473.311 414.576C473.318 414.72 473.323 414.832 473.327 414.908C473.329 414.946 473.33 414.975 473.331 414.994C473.332 415.004 473.332 415.011 473.332 415.016C473.332 415.019 473.332 415.022 473.332 415.022L473.333 415.024C473.333 415.024 473.333 415.024 472.084 415.083C470.835 415.142 470.835 415.142 470.835 415.142L470.835 415.14C470.835 415.14 470.835 415.137 470.835 415.135C470.835 415.13 470.834 415.123 470.834 415.113C470.833 415.094 470.832 415.066 470.83 415.028C470.826 414.953 470.821 414.842 470.814 414.699C470.8 414.412 470.779 413.995 470.752 413.476C470.699 412.437 470.621 410.989 470.526 409.351C470.335 406.071 470.073 402.048 469.787 399.03L472.276 398.795ZM468.305 240.637C468.247 255.731 468.18 283.773 468.105 285.625L465.607 285.525C465.679 283.733 465.747 255.783 465.805 240.628L468.305 240.637Z" fill="#B1ADA7"/>
<path d="M465.93 454.251C466.154 454.905 465.807 455.618 465.155 455.842C464.502 456.068 463.791 455.72 463.566 455.066L465.93 454.251ZM457.79 240.252L457.79 239L460.29 239.001L460.29 240.253L457.79 240.252ZM460.349 316.08C460.542 332.474 459.015 357.371 458.617 383.628L456.117 383.589C456.519 357.103 458.042 332.509 457.849 316.11L460.349 316.08ZM458.617 383.628C458.432 395.805 457.561 402.422 458.294 414.395L455.798 414.548C455.059 402.46 455.936 395.516 456.117 383.589L458.617 383.628ZM458.294 414.395C458.834 423.232 459.042 428.164 460.837 436.719L458.39 437.234C456.552 428.476 456.338 423.37 455.798 414.548L458.294 414.395ZM460.837 436.719C461.562 440.177 462.831 444.551 463.928 448.085C464.475 449.846 464.976 451.389 465.34 452.492C465.522 453.043 465.67 453.484 465.772 453.787C465.823 453.938 465.862 454.054 465.889 454.133C465.903 454.172 465.913 454.202 465.92 454.221C465.923 454.231 465.926 454.239 465.927 454.244C465.928 454.246 465.929 454.249 465.929 454.249L465.93 454.251C465.93 454.251 465.93 454.251 464.748 454.659C463.566 455.066 463.566 455.066 463.566 455.066L463.565 455.064C463.565 455.064 463.564 455.061 463.563 455.058C463.561 455.053 463.558 455.045 463.555 455.034C463.548 455.013 463.537 454.983 463.523 454.942C463.496 454.861 463.455 454.742 463.404 454.589C463.3 454.281 463.15 453.836 462.966 453.279C462.599 452.166 462.093 450.608 461.541 448.828C460.439 445.281 459.141 440.814 458.39 437.234L460.837 436.719ZM460.29 240.253C460.278 268.798 460.287 310.816 460.349 316.08L457.849 316.11C457.787 310.826 457.778 268.783 457.79 240.252L460.29 240.253Z" fill="#B1ADA7"/>
<path d="M446.142 433.682C446.073 434.37 445.461 434.872 444.774 434.803C444.087 434.734 443.586 434.121 443.655 433.432L446.142 433.682ZM452.521 240.253V239H455.021V240.253H452.521ZM454.927 322.22C454.782 334.153 452.641 356.678 452.005 364.124L449.514 363.91C450.157 356.386 452.284 334.002 452.427 322.189L454.927 322.22ZM452.005 364.124C451.37 371.55 450.273 390.724 447.268 422.205L444.78 421.966C447.786 390.468 448.869 371.453 449.514 363.91L452.005 364.124ZM447.268 422.205C447.054 424.447 446.773 427.317 446.545 429.625C446.431 430.779 446.33 431.793 446.258 432.519C446.222 432.882 446.193 433.171 446.173 433.372C446.163 433.472 446.155 433.549 446.15 433.601C446.147 433.627 446.145 433.647 446.144 433.661C446.143 433.668 446.143 433.673 446.143 433.677C446.142 433.678 446.142 433.679 446.142 433.68C446.142 433.68 446.142 433.681 446.142 433.682C446.142 433.682 446.142 433.682 444.898 433.556C443.655 433.432 443.655 433.432 443.655 433.432C443.655 433.432 443.655 433.431 443.655 433.43C443.655 433.43 443.655 433.428 443.655 433.427C443.655 433.423 443.656 433.418 443.657 433.412C443.658 433.398 443.66 433.378 443.662 433.352C443.668 433.3 443.675 433.222 443.685 433.122C443.705 432.923 443.734 432.632 443.77 432.27C443.842 431.545 443.943 430.531 444.057 429.378C444.285 427.07 444.566 424.205 444.78 421.966L447.268 422.205ZM455.021 261.016C455.005 293.251 454.974 318.336 454.927 322.22L452.427 322.189C452.474 318.325 452.505 293.264 452.521 261.015L455.021 261.016ZM452.521 261.015V240.253H455.021V261.016L452.521 261.015Z" fill="#B1ADA7"/>
<path d="M450.356 255.857L449.356 255.871V255.857H450.356ZM404.143 446.085C403.729 446.451 403.097 446.411 402.732 445.995C402.367 445.579 402.407 444.945 402.821 444.579L404.143 446.085ZM449.356 240.004V239H451.356V240.004H449.356ZM451.356 255.843C451.489 265.572 451.26 305.16 447.212 336.424L445.228 336.165C449.259 305.044 449.488 265.57 449.356 255.871L451.356 255.843ZM447.212 336.424C444.158 360.007 444.181 374.215 435.759 396.707L433.887 396.002C442.202 373.793 442.15 359.936 445.228 336.165L447.212 336.424ZM435.759 396.707C430.278 411.347 427.446 420.464 417.433 432.74L415.886 431.468C425.654 419.492 428.383 410.701 433.887 396.002L435.759 396.707ZM417.433 432.74C415.087 435.617 411.756 438.959 409.032 441.565C407.666 442.871 406.445 444 405.565 444.803C405.126 445.204 404.771 445.523 404.526 445.743C404.403 445.854 404.308 445.939 404.243 445.996C404.211 446.025 404.186 446.047 404.169 446.062C404.161 446.07 404.154 446.075 404.15 446.079C404.148 446.081 404.146 446.083 404.145 446.084C404.144 446.084 404.143 446.085 404.143 446.085C404.143 446.085 404.143 446.085 404.143 446.085C404.143 446.085 404.143 446.085 403.482 445.332C402.821 444.579 402.821 444.58 402.821 444.579C402.821 444.579 402.822 444.578 402.822 444.577C402.823 444.577 402.825 444.575 402.827 444.574C402.831 444.57 402.837 444.565 402.845 444.558C402.861 444.544 402.885 444.523 402.916 444.495C402.979 444.438 403.072 444.355 403.193 444.247C403.434 444.03 403.785 443.714 404.22 443.317C405.091 442.522 406.3 441.405 407.652 440.111C410.365 437.516 413.622 434.244 415.886 431.468L417.433 432.74ZM449.356 255.857V240.004H451.356V255.857H449.356Z" fill="#B1ADA7"/>
<path fill-rule="evenodd" clip-rule="evenodd" d="M474.34 421.376C473.693 414.793 473.008 407.832 472.415 401.561L469.817 397.324C469.817 397.324 471.613 443.014 471.613 446.101C471.613 449.188 470.991 455.553 467.274 459.716C464.537 462.781 461.683 463.579 458.209 464.55C457.153 464.845 456.04 465.156 454.855 465.551C448.604 467.639 444.821 468.076 438.247 468.544C431.205 469.044 426.862 468.489 420.458 467.671L420.45 467.67L420.447 467.669L420.427 467.667C419.62 467.564 418.781 467.456 417.899 467.347C414.046 466.867 411.465 466.382 408.295 465.788L408.292 465.787C407.168 465.576 405.97 465.351 404.615 465.108C402.958 464.81 401.44 464.544 400.008 464.293L399.989 464.289L399.961 464.284H399.96C394.007 463.24 389.537 462.455 382.733 460.772C375.732 459.041 370.474 457.012 365.207 454.98C359.998 452.97 354.78 450.957 347.86 449.226C346.807 448.962 345.873 448.714 344.997 448.482H344.995L344.994 448.481C342.432 447.802 340.361 447.253 337.216 446.811C334.163 446.381 330.434 445.871 329.345 446.184C328.257 446.498 327.299 447.163 327.557 448.599C327.683 449.303 328.167 449.907 328.686 450.556C329.228 451.233 329.808 451.957 330.061 452.893C330.471 454.408 330.541 455.797 330.628 457.503V457.507C330.646 457.862 330.664 458.231 330.687 458.617C330.703 458.899 330.72 459.184 330.738 459.472C330.987 463.643 331.268 468.34 330.24 469.797C329.262 471.184 327.468 471.903 325.451 472.712C325.202 472.812 324.949 472.913 324.694 473.017C321.846 474.18 320.256 474.717 317.002 474.717H240V479.365H320.227C323.632 479.365 337.086 478.434 338.358 478.128C339.493 477.856 341.316 477.286 343.237 476.687L343.935 476.469C349.254 474.811 352.234 473.847 357.414 471.796C362.076 469.95 367.734 467.056 371.798 464.977C374.628 463.529 376.686 462.477 377.092 462.451C378.083 462.388 389.681 466.005 389.681 466.005C397.42 468.076 401.77 469.22 409.606 470.888C420.527 473.213 426.703 474.402 437.799 475.641C450.121 477.017 468.593 477.922 469.509 477.204C470.426 476.486 473.677 467.449 474.653 464.247C475.629 461.045 476.941 451.663 476.737 447.252C476.604 444.391 475.536 433.527 474.34 421.376ZM352.132 470.201C354.656 469.243 371.02 462.019 370.15 460.626C369.279 459.233 364.666 457.318 362.751 456.535C360.836 455.752 343.253 450.268 340.903 450.355C338.553 450.442 337.073 451.225 336.116 452.27C335.158 453.314 335.158 455.665 335.245 457.58C335.255 457.797 335.265 458.096 335.277 458.456V458.46C335.37 461.274 335.588 467.855 336.899 469.243C338.379 470.81 340.555 471.594 342.992 471.681C345.429 471.768 349.607 471.158 352.132 470.201ZM461.186 468.913C461.94 468.681 464.549 469.319 465.244 470.015C465.94 470.71 466.694 472.508 466.404 473.319C466.114 474.131 457.94 474.073 455.911 474.015C453.882 473.957 445.472 473.379 438.809 472.681C437.451 472.539 436.141 472.431 434.888 472.328C431.745 472.068 428.956 471.837 426.635 471.174C423.737 470.346 441.172 471.043 446.18 471.243C446.781 471.267 447.203 471.284 447.389 471.29C449.128 471.348 457.071 470.969 457.882 470.564C458.126 470.442 458.452 470.266 458.81 470.073C459.648 469.621 460.659 469.076 461.186 468.913Z" fill="#B1ADA7"/>
<path fill-rule="evenodd" clip-rule="evenodd" d="M240 472.375C240 472.375 310.467 472.375 312.832 472.375C315.197 472.375 317.327 471.565 320.017 470.543L320.208 470.47C320.802 470.244 321.356 470.065 321.879 469.896C323.494 469.374 324.821 468.945 326.169 467.52C327.616 465.992 328.177 464.781 328.628 462.726C329.215 460.045 328.428 458.207 327.465 455.958C327.202 455.344 326.926 454.7 326.661 453.999C326.275 452.979 325.697 452.221 325.145 451.498C324.349 450.455 323.61 449.486 323.588 447.914C323.586 447.782 323.583 447.68 323.581 447.594C323.577 447.465 323.575 447.377 323.579 447.288C323.588 447.093 323.629 446.899 323.761 446.278L323.762 446.27C323.799 446.096 323.843 445.89 323.895 445.64C324.277 443.815 330.159 442.276 331.657 442.025C333.155 441.775 344.031 440.35 352.006 440.284C363.34 440.189 369.755 441.053 380.88 443.217C386.359 444.282 389.43 444.958 394.774 446.569C399.401 447.964 402.521 449.257 406.148 450.76C407.793 451.442 409.542 452.167 411.583 452.964C413.575 453.742 415.307 454.35 416.939 454.923C420.293 456.102 423.224 457.132 427.113 459.176C429.633 460.5 431.011 461.318 433.408 462.854C434.119 463.31 434.811 463.863 435.451 464.375C436.428 465.156 437.287 465.842 437.915 465.945C438.956 466.115 446.422 465.497 451.567 463.885C455.818 462.552 463.987 459.706 461.934 459.12C460.796 458.795 458.338 458.502 455.46 458.158C453.14 457.882 450.548 457.572 448.154 457.188C447.643 457.106 447.157 457.028 446.69 456.954C442.94 456.355 440.437 455.955 436.372 455.088C432.137 454.185 429.3 453.397 425.848 452.438C424.571 452.083 423.208 451.705 421.66 451.288C419.71 450.764 417.157 450.145 414.65 449.538C409.108 448.194 403.786 446.904 405.68 446.806C407.536 446.71 411.24 447.481 415.332 448.333C417.308 448.744 419.375 449.174 421.367 449.534C424.139 450.036 426.383 450.48 428.552 450.909C431.451 451.483 434.217 452.03 437.931 452.652C438.87 452.81 439.749 452.959 440.586 453.1L440.59 453.101C445.495 453.932 448.94 454.516 454.495 455.088C458.481 455.499 464.726 455.868 464.726 455.868L463.752 451.775C463.752 451.775 456.807 448.867 453.813 445.345C451.656 442.807 450.929 440.77 449.911 437.915C449.759 437.489 449.6 437.043 449.429 436.576C447.243 430.601 447.4 419.014 447.4 419.014L444.981 422.124C444.981 422.124 443.941 428.079 442.608 431.217C442.035 432.567 438.986 433.659 436.731 434.467C436.278 434.629 435.858 434.78 435.495 434.919C433.329 435.751 429.108 437.078 424.875 437.842C420.515 438.629 418.002 438.889 413.573 438.817C410.554 438.767 408.681 438.506 406.007 438.133C405.565 438.071 405.102 438.007 404.609 437.94C401.107 437.463 398.487 436.818 395.8 436.156C393.521 435.595 391.194 435.022 388.239 434.529C379.763 433.116 374.943 432.689 366.372 432.062L366.223 432.051C358.696 431.501 354.411 431.187 346.821 431.318C346.301 431.326 345.796 431.335 345.306 431.343C338.926 431.447 334.879 431.513 328.201 432.621C323.937 433.329 321.571 433.902 317.401 435.042C316.067 435.406 314.429 435.715 312.812 436.019C308.974 436.742 305.261 437.442 306.049 438.812C306.722 439.982 307.848 440.722 309.092 441.54C309.918 442.083 310.796 442.66 311.629 443.421C311.86 443.631 312.085 443.837 312.306 444.038L312.31 444.041C316.051 447.45 318.424 449.612 321.233 454.1C321.739 454.907 322.319 455.608 322.872 456.277C324.217 457.904 325.4 459.335 324.942 461.607C324.572 463.442 323.662 464.795 322.409 465.677C321.156 466.559 312.424 467.848 309.927 467.848H240V472.375ZM443.776 437.991C445.495 439.326 446.284 441.01 445.887 443.15C445.534 445.048 444.123 446.476 442.76 446.98C441.397 447.483 437.59 448.082 434.24 447.996C430.225 447.893 425.329 446.793 424.157 445.964L424.043 445.883C422.904 445.08 421.715 444.241 421.564 442.274C421.49 441.314 424.899 440.49 428.216 439.688L428.263 439.677C432.246 438.714 436.316 437.847 437.367 437.678C437.822 437.605 438.26 437.518 438.684 437.433C440.562 437.057 442.161 436.737 443.776 437.991ZM380.959 436.318C381.489 436.397 382.051 436.48 382.639 436.566C390.383 437.709 402.408 439.484 400.066 440.022C398.068 440.482 395.46 440.259 392.554 440.01C391.797 439.946 391.019 439.879 390.227 439.823C388.101 439.671 386.569 439.462 384.891 439.233C383.887 439.096 382.83 438.952 381.562 438.809L380.393 438.677C375.535 438.127 372.476 437.781 367.305 437.292C365.621 437.133 364.155 436.969 362.778 436.816C359.463 436.446 356.666 436.134 352.592 436.079C346.541 435.997 343.092 436 337.122 436.989C336.761 437.048 336.414 437.105 336.077 437.16L336.075 437.161C332.482 437.749 330.132 438.133 326.504 439.567C323.523 440.746 321.583 441.756 319.224 443.359C316.865 444.963 319.747 440.601 321.044 439.719C322.341 438.836 328.42 436.543 333.998 435.306C341.622 433.614 347.186 433.791 354.503 434.022C355.404 434.051 356.332 434.08 357.294 434.107C366.573 434.366 371.777 434.957 380.959 436.318Z" fill="#B1ADA7"/>
<path d="M417.409 432.343L415.028 432.252C415.028 432.252 414.229 433.415 412.968 434.495C411.812 435.486 410.054 437.055 408.838 437.551C407.621 438.047 403.584 437.837 403.584 437.837L407.699 443.243L417.862 438.788C417.862 438.788 415.477 438.662 414.957 437.228C414.437 435.793 417.409 432.343 417.409 432.343Z" fill="#B1ADA7"/>
<path d="M384.571 457.265L397.088 450.03C397.088 450.03 398.567 449.471 399.559 449.313C400.858 449.107 402.939 449.385 402.939 449.385L399.959 445.321L388.057 444.706C388.057 444.706 392.618 446.278 393.242 446.811C393.867 447.345 394.143 448.607 393.528 448.996C392.913 449.385 383.537 455.427 383.537 455.427C383.537 455.427 378.817 457.292 377.336 457.494C375.856 457.697 371.469 457.381 371.469 457.381L373.202 460.135L384.712 461.286C384.712 461.286 382.072 460.049 382.044 459.332C382.017 458.615 384.571 457.265 384.571 457.265Z" fill="#B1ADA7"/>
</g>
<g clip-path="url(#clip3_195_2501)">
<path d="M473.333 64.976C473.365 64.287 472.833 63.701 472.143 63.669C471.453 63.636 470.868 64.169 470.835 64.858L473.333 64.976ZM465.805 239.372L465.809 241L468.309 241L468.305 239.363L465.805 239.372ZM468.105 194.375C467.841 187.786 468.616 158.254 469.503 135.026L467.005 134.931C466.119 158.112 465.339 187.763 465.607 194.475L468.105 194.375ZM469.503 135.026C470.309 113.933 470.296 102.139 472.276 81.205L469.787 80.97C467.798 101.996 467.808 113.907 467.005 134.931L469.503 135.026ZM472.276 81.205C472.566 78.14 472.83 74.078 473.022 70.794C473.117 69.149 473.195 67.696 473.249 66.653C473.276 66.131 473.297 65.713 473.311 65.424C473.318 65.28 473.323 65.168 473.327 65.092C473.329 65.054 473.33 65.025 473.331 65.006C473.332 64.996 473.332 64.989 473.332 64.984C473.332 64.981 473.332 64.978 473.332 64.978L473.333 64.976C473.333 64.976 473.333 64.976 472.084 64.917C470.835 64.858 470.835 64.858 470.835 64.858L470.835 64.86C470.835 64.86 470.835 64.863 470.835 64.865C470.835 64.87 470.834 64.877 470.834 64.887C470.833 64.906 470.832 64.934 470.83 64.972C470.826 65.047 470.821 65.158 470.814 65.301C470.8 65.588 470.779 66.005 470.752 66.524C470.699 67.563 470.621 69.011 470.526 70.649C470.335 73.929 470.073 77.952 469.787 80.97L472.276 81.205ZM468.305 239.363C468.247 224.269 468.18 196.227 468.105 194.375L465.607 194.475C465.679 196.267 465.747 224.217 465.805 239.372L468.305 239.363Z" fill="#B1ADA7"/>
<path d="M465.93 25.749C466.154 25.095 465.807 24.382 465.155 24.158C464.502 23.932 463.791 24.28 463.566 24.934L465.93 25.749ZM457.79 239.748L457.79 241L460.29 240.999L460.29 239.747L457.79 239.748ZM460.349 163.92C460.542 147.526 459.015 122.629 458.617 96.372L456.117 96.411C456.519 122.897 458.042 147.491 457.849 163.89L460.349 163.92ZM458.617 96.372C458.432 84.195 457.561 77.578 458.294 65.605L455.798 65.452C455.059 77.54 455.936 84.484 456.117 96.411L458.617 96.372ZM458.294 65.605C458.834 56.768 459.042 51.836 460.837 43.281L458.39 42.766C456.552 51.524 456.338 56.63 455.798 65.452L458.294 65.605ZM460.837 43.281C461.562 39.823 462.831 35.449 463.928 31.915C464.475 30.154 464.976 28.611 465.34 27.508C465.522 26.957 465.67 26.516 465.772 26.213C465.823 26.062 465.862 25.946 465.889 25.867C465.903 25.828 465.913 25.798 465.92 25.779C465.923 25.769 465.926 25.761 465.927 25.756C465.928 25.754 465.929 25.751 465.929 25.751L465.93 25.749C465.93 25.749 465.93 25.749 464.748 25.341C463.566 24.934 463.566 24.934 463.566 24.934L463.565 24.936C463.565 24.936 463.564 24.939 463.563 24.942C463.561 24.947 463.558 24.955 463.555 24.966C463.548 24.987 463.537 25.017 463.523 25.058C463.496 25.139 463.455 25.258 463.404 25.411C463.3 25.719 463.15 26.164 462.966 26.721C462.599 27.834 462.093 29.392 461.541 31.172C460.439 34.719 459.141 39.186 458.39 42.766L460.837 43.281ZM460.29 239.747C460.278 211.202 460.287 169.184 460.349 163.92L457.849 163.89C457.787 169.174 457.778 211.217 457.79 239.748L460.29 239.747Z" fill="#B1ADA7"/>
<path d="M446.142 46.318C446.073 45.63 445.461 45.128 444.774 45.197C444.087 45.266 443.586 45.879 443.655 46.568L446.142 46.318ZM452.521 239.747V241H455.021V239.747H452.521ZM454.927 157.78C454.782 145.847 452.641 123.322 452.005 115.876L449.514 116.09C450.157 123.614 452.284 145.998 452.427 157.811L454.927 157.78ZM452.005 115.876C451.37 108.45 450.273 89.276 447.268 57.795L444.78 58.034C447.786 89.532 448.869 108.547 449.514 116.09L452.005 115.876ZM447.268 57.795C447.054 55.553 446.773 52.683 446.545 50.375C446.431 49.221 446.33 48.207 446.258 47.481C446.222 47.118 446.193 46.829 446.173 46.628C446.163 46.528 446.155 46.451 446.15 46.399C446.147 46.373 446.145 46.353 446.144 46.339C446.143 46.332 446.143 46.327 446.143 46.323C446.142 46.322 446.142 46.321 446.142 46.32C446.142 46.32 446.142 46.319 446.142 46.318C446.142 46.318 446.142 46.318 444.898 46.444C443.655 46.568 443.655 46.568 443.655 46.568C443.655 46.568 443.655 46.569 443.655 46.57C443.655 46.57 443.655 46.572 443.655 46.573C443.655 46.577 443.656 46.582 443.657 46.588C443.658 46.602 443.66 46.622 443.662 46.648C443.668 46.7 443.675 46.778 443.685 46.878C443.705 47.077 443.734 47.368 443.77 47.73C443.842 48.455 443.943 49.469 444.057 50.622C444.285 52.93 444.566 55.795 444.78 58.034L447.268 57.795ZM455.021 218.984C455.005 186.749 454.974 161.664 454.927 157.78L452.427 157.811C452.474 161.675 452.505 186.736 452.521 218.985L455.021 218.984ZM452.521 218.985V239.747H455.021V218.984L452.521 218.985Z" fill="#B1ADA7"/>
<path d="M450.356 224.143L449.356 224.129V224.143H450.356ZM404.143 33.915C403.729 33.549 403.097 33.589 402.732 34.005C402.367 34.421 402.407 35.055 402.821 35.421L404.143 33.915ZM449.356 239.996V241H451.356V239.996H449.356ZM451.356 224.157C451.489 214.428 451.26 174.84 447.212 143.576L445.228 143.835C449.259 174.956 449.488 214.43 449.356 224.129L451.356 224.157ZM447.212 143.576C444.158 119.993 444.181 105.785 435.759 83.293L433.887 83.998C442.202 106.207 442.15 120.064 445.228 143.835L447.212 143.576ZM435.759 83.293C430.278 68.653 427.446 59.536 417.433 47.26L415.886 48.532C425.654 60.508 428.383 69.299 433.887 83.998L435.759 83.293ZM417.433 47.26C415.087 44.383 411.756 41.041 409.032 38.435C407.666 37.129 406.445 36 405.565 35.197C405.126 34.796 404.771 34.477 404.526 34.257C404.403 34.146 404.308 34.061 404.243 34.004C404.211 33.975 404.186 33.953 404.169 33.938C404.161 33.93 404.154 33.925 404.15 33.921C404.148 33.919 404.146 33.917 404.145 33.916C404.144 33.916 404.143 33.915 404.143 33.915C404.143 33.915 404.143 33.915 404.143 33.915C404.143 33.915 404.143 33.915 403.482 34.668C402.821 35.421 402.821 35.42 402.821 35.421C402.821 35.421 402.822 35.422 402.822 35.423C402.823 35.423 402.825 35.425 402.827 35.426C402.831 35.43 402.837 35.435 402.845 35.442C402.861 35.456 402.885 35.477 402.916 35.505C402.979 35.562 403.072 35.645 403.193 35.753C403.434 35.97 403.785 36.286 404.22 36.683C405.091 37.478 406.3 38.595 407.652 39.889C410.365 42.484 413.622 45.756 415.886 48.532L417.433 47.26ZM449.356 224.143V239.996H451.356V224.143H449.356Z" fill="#B1ADA7"/>
<path fill-rule="evenodd" clip-rule="evenodd" d="M474.34 58.624C473.693 65.207 473.008 72.168 472.415 78.439L469.817 82.676C469.817 82.676 471.613 36.986 471.613 33.899C471.613 30.812 470.991 24.447 467.274 20.284C464.537 17.219 461.683 16.421 458.209 15.45C457.153 15.155 456.04 14.844 454.855 14.449C448.604 12.361 444.821 11.924 438.247 11.456C431.205 10.956 426.862 11.511 420.458 12.329L420.45 12.33L420.447 12.331L420.427 12.333C419.62 12.436 418.781 12.544 417.899 12.653C414.046 13.133 411.465 13.618 408.295 14.212L408.292 14.213C407.168 14.424 405.97 14.649 404.615 14.892C402.958 15.19 401.44 15.456 400.008 15.707L399.989 15.711L399.961 15.716H399.96C394.007 16.76 389.537 17.545 382.733 19.228C375.732 20.959 370.474 22.988 365.207 25.02C359.998 27.03 354.78 29.043 347.86 30.774C346.807 31.038 345.873 31.286 344.997 31.518H344.995L344.994 31.519C342.432 32.198 340.361 32.747 337.216 33.189C334.163 33.619 330.434 34.129 329.345 33.816C328.257 33.502 327.299 32.837 327.557 31.401C327.683 30.697 328.167 30.093 328.686 29.444C329.228 28.767 329.808 28.043 330.061 27.107C330.471 25.592 330.541 24.203 330.628 22.497V22.493C330.646 22.138 330.664 21.769 330.687 21.383C330.703 21.101 330.72 20.816 330.738 20.528C330.987 16.357 331.268 11.66 330.24 10.203C329.262 8.81601 327.468 8.097 325.451 7.288C325.202 7.188 324.949 7.08701 324.694 6.98301C321.846 5.82001 320.256 5.28303 317.002 5.28303H240V0.635025H320.227C323.632 0.635025 337.086 1.56602 338.358 1.87202C339.493 2.14402 341.316 2.71403 343.237 3.31303L343.935 3.53102C349.254 5.18902 352.234 6.15302 357.414 8.20402C362.076 10.05 367.734 12.944 371.798 15.023C374.628 16.471 376.686 17.523 377.092 17.549C378.083 17.612 389.681 13.995 389.681 13.995C397.42 11.924 401.77 10.78 409.606 9.11201C420.527 6.78701 426.703 5.59802 437.799 4.35902C450.121 2.98302 468.593 2.07804 469.509 2.79604C470.426 3.51404 473.677 12.551 474.653 15.753C475.629 18.955 476.941 28.337 476.737 32.748C476.604 35.609 475.536 46.473 474.34 58.624ZM352.132 9.79902C354.656 10.757 371.02 17.981 370.15 19.374C369.279 20.767 364.666 22.682 362.751 23.465C360.836 24.248 343.253 29.732 340.903 29.645C338.553 29.558 337.073 28.775 336.116 27.73C335.158 26.686 335.158 24.335 335.245 22.42C335.255 22.203 335.265 21.904 335.277 21.544V21.54C335.37 18.726 335.588 12.145 336.899 10.757C338.379 9.19003 340.555 8.40601 342.992 8.31901C345.429 8.23201 349.607 8.84202 352.132 9.79902ZM461.186 11.087C461.94 11.319 464.549 10.681 465.244 9.98502C465.94 9.29002 466.694 7.49201 466.404 6.68101C466.114 5.86901 457.94 5.92702 455.911 5.98502C453.882 6.04302 445.472 6.62101 438.809 7.31901C437.451 7.46101 436.141 7.569 434.888 7.672C431.745 7.932 428.956 8.16303 426.635 8.82603C423.737 9.65403 441.172 8.95703 446.18 8.75703C446.781 8.73303 447.203 8.71603 447.389 8.71003C449.128 8.65203 457.071 9.03101 457.882 9.43601C458.126 9.55801 458.452 9.73401 458.81 9.92701C459.648 10.379 460.659 10.924 461.186 11.087Z" fill="#B1ADA7"/>
<path fill-rule="evenodd" clip-rule="evenodd" d="M240 7.62497C240 7.62497 310.467 7.62497 312.832 7.62497C315.197 7.62497 317.327 8.43497 320.017 9.45697L320.208 9.52997C320.802 9.75597 321.356 9.93497 321.879 10.104C323.494 10.626 324.821 11.055 326.169 12.48C327.616 14.008 328.177 15.219 328.628 17.274C329.215 19.955 328.428 21.793 327.465 24.042C327.202 24.656 326.926 25.3 326.661 26.001C326.275 27.021 325.697 27.779 325.145 28.502C324.349 29.545 323.61 30.514 323.588 32.086C323.586 32.218 323.583 32.32 323.581 32.406C323.577 32.535 323.575 32.623 323.579 32.712C323.588 32.907 323.629 33.101 323.761 33.722L323.762 33.73C323.799 33.904 323.843 34.11 323.895 34.36C324.277 36.185 330.159 37.724 331.657 37.975C333.155 38.225 344.031 39.65 352.006 39.716C363.34 39.811 369.755 38.947 380.88 36.783C386.359 35.718 389.43 35.042 394.774 33.431C399.401 32.036 402.521 30.743 406.148 29.24C407.793 28.558 409.542 27.833 411.583 27.036C413.575 26.258 415.307 25.65 416.939 25.077C420.293 23.898 423.224 22.868 427.113 20.824C429.633 19.5 431.011 18.682 433.408 17.146C434.119 16.69 434.811 16.137 435.451 15.625C436.428 14.844 437.287 14.158 437.915 14.055C438.956 13.885 446.422 14.503 451.567 16.115C455.818 17.448 463.987 20.294 461.934 20.88C460.796 21.205 458.338 21.498 455.46 21.842C453.14 22.118 450.548 22.428 448.154 22.812C447.643 22.894 447.157 22.972 446.69 23.046C442.94 23.645 440.437 24.045 436.372 24.912C432.137 25.815 429.3 26.603 425.848 27.562C424.571 27.917 423.208 28.295 421.66 28.712C419.71 29.236 417.157 29.855 414.65 30.462C409.108 31.806 403.786 33.096 405.68 33.194C407.536 33.29 411.24 32.519 415.332 31.667C417.308 31.256 419.375 30.826 421.367 30.466C424.139 29.964 426.383 29.52 428.552 29.091C431.451 28.517 434.217 27.97 437.931 27.348C438.87 27.19 439.749 27.041 440.586 26.9L440.59 26.899C445.495 26.068 448.94 25.484 454.495 24.912C458.481 24.501 464.726 24.132 464.726 24.132L463.752 28.225C463.752 28.225 456.807 31.133 453.813 34.655C451.656 37.193 450.929 39.23 449.911 42.085C449.759 42.511 449.6 42.957 449.429 43.424C447.243 49.399 447.4 60.986 447.4 60.986L444.981 57.876C444.981 57.876 443.941 51.921 442.608 48.783C442.035 47.433 438.986 46.341 436.731 45.533C436.278 45.371 435.858 45.22 435.495 45.081C433.329 44.249 429.108 42.922 424.875 42.158C420.515 41.371 418.002 41.111 413.573 41.183C410.554 41.233 408.681 41.494 406.007 41.867C405.565 41.929 405.102 41.993 404.609 42.06C401.107 42.537 398.487 43.182 395.8 43.844C393.521 44.405 391.194 44.978 388.239 45.471C379.763 46.884 374.943 47.311 366.372 47.938L366.223 47.949C358.696 48.499 354.411 48.813 346.821 48.682C346.301 48.674 345.796 48.665 345.306 48.657C338.926 48.553 334.879 48.487 328.201 47.379C323.937 46.671 321.571 46.098 317.401 44.958C316.067 44.594 314.429 44.285 312.812 43.981C308.974 43.258 305.261 42.558 306.049 41.188C306.722 40.018 307.848 39.278 309.092 38.46C309.918 37.917 310.796 37.34 311.629 36.579C311.86 36.369 312.085 36.163 312.306 35.962L312.31 35.959C316.051 32.55 318.424 30.388 321.233 25.9C321.739 25.093 322.319 24.392 322.872 23.723C324.217 22.096 325.4 20.665 324.942 18.393C324.572 16.558 323.662 15.205 322.409 14.323C321.156 13.441 312.424 12.152 309.927 12.152H240V7.62497ZM443.776 42.009C445.495 40.674 446.284 38.99 445.887 36.85C445.534 34.952 444.123 33.524 442.76 33.02C441.397 32.517 437.59 31.918 434.24 32.004C430.225 32.107 425.329 33.207 424.157 34.036L424.043 34.117C422.904 34.92 421.715 35.759 421.564 37.726C421.49 38.686 424.899 39.51 428.216 40.312L428.263 40.323C432.246 41.286 436.316 42.153 437.367 42.322C437.822 42.395 438.26 42.482 438.684 42.567C440.562 42.943 442.161 43.263 443.776 42.009ZM380.959 43.682C381.489 43.603 382.051 43.52 382.639 43.434C390.383 42.291 402.408 40.516 400.066 39.978C398.068 39.518 395.46 39.741 392.554 39.99C391.797 40.054 391.019 40.121 390.227 40.177C388.101 40.329 386.569 40.538 384.891 40.767C383.887 40.904 382.83 41.048 381.562 41.191L380.393 41.323C375.535 41.873 372.476 42.219 367.305 42.708C365.621 42.867 364.155 43.031 362.778 43.184C359.463 43.554 356.666 43.866 352.592 43.921C346.541 44.003 343.092 44 337.122 43.011C336.761 42.952 336.414 42.895 336.077 42.84L336.075 42.839C332.482 42.251 330.132 41.867 326.504 40.433C323.523 39.254 321.583 38.244 319.224 36.641C316.865 35.037 319.747 39.399 321.044 40.281C322.341 41.164 328.42 43.457 333.998 44.694C341.622 46.386 347.186 46.209 354.503 45.978C355.404 45.949 356.332 45.92 357.294 45.893C366.573 45.634 371.777 45.043 380.959 43.682Z" fill="#B1ADA7"/>
<path d="M417.409 47.657L415.028 47.748C415.028 47.748 414.229 46.5851 412.968 45.5051C411.812 44.5141 410.054 42.9451 408.838 42.4491C407.621 41.9531 403.584 42.163 403.584 42.163L407.699 36.757L417.862 41.2121C417.862 41.2121 415.477 41.338 414.957 42.772C414.437 44.207 417.409 47.657 417.409 47.657Z" fill="#B1ADA7"/>
<path d="M384.571 22.7349L397.088 29.9699C397.088 29.9699 398.567 30.5289 399.559 30.6869C400.858 30.8929 402.939 30.6149 402.939 30.6149L399.959 34.6789L388.057 35.2939C388.057 35.2939 392.618 33.7219 393.242 33.1889C393.867 32.6549 394.143 31.3929 393.528 31.0039C392.913 30.6149 383.537 24.5729 383.537 24.5729C383.537 24.5729 378.817 22.7079 377.336 22.5059C375.856 22.3029 371.469 22.6189 371.469 22.6189L373.202 19.8649L384.712 18.7139C384.712 18.7139 382.072 19.9509 382.044 20.6679C382.017 21.3849 384.571 22.7349 384.571 22.7349Z" fill="#B1ADA7"/>
</g>
<defs>
<clipPath id="clip0_195_2501">
<rect width="240" height="240" fill="white" transform="translate(0 240)"/>
</clipPath>
<clipPath id="clip1_195_2501">
<rect width="240" height="240" fill="white" transform="matrix(1 0 0 -1 0 240)"/>
</clipPath>
<clipPath id="clip2_195_2501">
<rect width="240" height="240" fill="white" transform="matrix(-1 0 0 1 480 240)"/>
</clipPath>
<clipPath id="clip3_195_2501">
<rect width="240" height="240" fill="white" transform="matrix(-1 0 0 -1 480 240)"/>
</clipPath>
</defs>
</svg>
