<svg width="362" height="241" viewBox="0 0 362 241" fill="none" xmlns="http://www.w3.org/2000/svg">
<g clip-path="url(#clip0_184_1596)">
<path d="M6.66743 176.024C6.63484 176.713 7.16744 177.299 7.85703 177.331C8.54661 177.364 9.13206 176.831 9.16465 176.142L6.66743 176.024ZM14.1953 1.62767L14.1905 2.3067e-05L11.6905 0L11.6953 1.63724L14.1953 1.62767ZM11.8945 46.6247C12.1585 53.2144 11.3843 82.7458 10.497 105.974L12.9952 106.069C13.8807 82.8879 14.6614 53.2365 14.3925 46.5246L11.8945 46.6247ZM10.497 105.974C9.6913 127.067 9.70421 138.861 7.72378 159.795L10.2126 160.03C12.2018 139.004 12.1921 127.093 12.9952 106.069L10.497 105.974ZM7.72378 159.795C7.43379 162.86 7.16968 166.922 6.97845 170.206C6.88269 171.851 6.80498 173.304 6.75119 174.347C6.72429 174.869 6.70336 175.287 6.68916 175.576C6.68205 175.72 6.67663 175.832 6.67298 175.908C6.67115 175.946 6.66977 175.975 6.66884 175.994C6.66838 176.004 6.66803 176.011 6.66779 176.016C6.66767 176.019 6.66753 176.022 6.66753 176.022L6.66743 176.024C6.66743 176.024 6.66743 176.024 7.91604 176.083C9.16464 176.142 9.16465 176.142 9.16465 176.142L9.16472 176.14C9.16472 176.14 9.16486 176.137 9.16498 176.135C9.1652 176.13 9.16556 176.123 9.16601 176.113C9.16692 176.094 9.16828 176.066 9.17009 176.028C9.1737 175.953 9.17908 175.842 9.18613 175.699C9.20025 175.412 9.22107 174.995 9.24786 174.476C9.30143 173.437 9.37887 171.989 9.47423 170.351C9.66522 167.071 9.9272 163.048 10.2126 160.03L7.72378 159.795ZM11.6953 1.63724C11.7531 16.7307 11.8203 44.7726 11.8945 46.6247L14.3925 46.5246C14.3207 44.7328 14.2533 16.7827 14.1953 1.62767L11.6953 1.63724Z" fill="#B1ADA7"/>
<path d="M14.0704 215.251C13.8457 215.905 14.1927 216.618 14.8454 216.842C15.4982 217.068 16.2095 216.72 16.4343 216.066L14.0704 215.251ZM22.2104 1.2523L22.2099 0L19.7099 0.00106895L19.7104 1.25337L22.2104 1.2523ZM19.6513 77.0802C19.4578 93.4739 20.9847 118.371 21.3833 144.628L23.883 144.589C23.4809 118.103 21.9576 93.5085 22.1512 77.1098L19.6513 77.0802ZM21.3833 144.628C21.5681 156.805 22.4391 163.422 21.7064 175.395L24.2017 175.548C24.9415 163.46 24.064 156.516 23.883 144.589L21.3833 144.628ZM21.7064 175.395C21.1656 184.232 20.9585 189.164 19.1635 197.719L21.6101 198.234C23.4478 189.476 23.6619 184.37 24.2017 175.548L21.7064 175.395ZM19.1635 197.719C18.4379 201.177 17.1691 205.551 16.0722 209.085C15.5254 210.846 15.0244 212.389 14.6602 213.492C14.4782 214.043 14.3304 214.484 14.2283 214.787C14.1772 214.938 14.1376 215.054 14.1108 215.133C14.0974 215.172 14.0872 215.202 14.0804 215.221C14.077 215.231 14.0745 215.239 14.0728 215.244C14.072 215.246 14.071 215.249 14.071 215.249L14.0704 215.251C14.0704 215.251 14.0704 215.251 15.2523 215.659C16.4343 216.066 16.4343 216.066 16.4343 216.066L16.4351 216.064C16.4351 216.064 16.4362 216.061 16.4372 216.058C16.439 216.053 16.4417 216.045 16.4453 216.034C16.4525 216.013 16.463 215.983 16.4767 215.942C16.5043 215.861 16.5447 215.742 16.5965 215.589C16.7002 215.281 16.8497 214.836 17.0336 214.279C17.4014 213.166 17.9072 211.608 18.4594 209.828C19.5606 206.281 20.859 201.814 21.6101 198.234L19.1635 197.719ZM19.7104 1.25337C19.7225 29.798 19.7135 71.8163 19.6513 77.0802L22.1512 77.1098C22.2135 71.8257 22.2225 29.783 22.2104 1.2523L19.7104 1.25337Z" fill="#B1ADA7"/>
<path d="M33.8579 194.682C33.9266 195.37 34.5392 195.872 35.2261 195.803C35.9131 195.734 36.4142 195.121 36.3454 194.432L33.8579 194.682ZM27.4785 1.25292V0H24.9785V1.25292H27.4785ZM25.0734 83.2197C25.2179 95.1532 27.3586 117.678 27.9953 125.124L30.4861 124.91C29.8427 117.386 27.7163 95.0023 27.5732 83.1893L25.0734 83.2197ZM27.9953 125.124C28.6303 132.55 29.7267 151.724 32.7317 183.205L35.2203 182.966C32.2137 151.468 31.1312 132.453 30.4861 124.91L27.9953 125.124ZM32.7317 183.205C32.9458 185.447 33.2273 188.317 33.4553 190.625C33.5693 191.779 33.67 192.793 33.7421 193.519C33.7782 193.882 33.8071 194.171 33.827 194.372C33.837 194.472 33.8447 194.549 33.8499 194.601C33.8525 194.627 33.8545 194.647 33.8559 194.661C33.8565 194.668 33.857 194.673 33.8574 194.677C33.8575 194.678 33.8577 194.679 33.8577 194.68C33.8578 194.68 33.8579 194.681 33.8579 194.682C33.8579 194.682 33.8579 194.682 35.1017 194.556C36.3454 194.432 36.3454 194.432 36.3454 194.432C36.3454 194.432 36.3454 194.431 36.3453 194.43C36.3452 194.43 36.3451 194.428 36.3449 194.427C36.3446 194.423 36.3441 194.418 36.3434 194.412C36.3421 194.398 36.3401 194.378 36.3375 194.352C36.3323 194.3 36.3246 194.222 36.3146 194.122C36.2947 193.923 36.2658 193.632 36.2298 193.27C36.1577 192.545 36.0571 191.531 35.9431 190.378C35.7152 188.07 35.434 185.205 35.2203 182.966L32.7317 183.205ZM24.9785 22.0156C24.9948 54.2514 25.0264 79.3363 25.0734 83.2197L27.5732 83.1893C27.5264 79.325 27.4948 54.2641 27.4785 22.015L24.9785 22.0156ZM27.4785 22.015V1.25292H24.9785V22.0156L27.4785 22.015Z" fill="#B1ADA7"/>
<path d="M29.6444 16.8571L30.6444 16.8708V16.8571H29.6444ZM75.8569 207.085C76.2713 207.451 76.9032 207.411 77.2683 206.995C77.6333 206.579 77.5933 205.945 77.1788 205.579L75.8569 207.085ZM30.6444 1.00379V0H28.6444V1.00379H30.6444ZM28.6445 16.8432C28.5115 26.5724 28.7397 66.1601 32.7882 97.4237L34.7716 97.1649C30.7415 66.0444 30.5118 26.5698 30.6444 16.8708L28.6445 16.8432ZM32.7882 97.4237C35.8422 121.007 35.8192 135.215 44.2406 157.707L46.1128 157.002C37.7976 134.793 37.85 120.936 34.7716 97.1649L32.7882 97.4237ZM44.2406 157.707C49.7223 172.347 52.5538 181.464 62.5666 193.74L64.1141 192.468C54.3459 180.492 51.6166 171.701 46.1128 157.002L44.2406 157.707ZM62.5666 193.74C64.9128 196.617 68.2445 199.959 70.9681 202.565C72.3341 203.871 73.555 205 74.4346 205.803C74.8745 206.204 75.2293 206.523 75.4745 206.743C75.5971 206.854 75.6923 206.939 75.757 206.996C75.7894 207.025 75.8142 207.047 75.8309 207.062C75.8393 207.07 75.8457 207.075 75.85 207.079C75.8522 207.081 75.8539 207.083 75.855 207.084C75.8556 207.084 75.8566 207.085 75.8569 207.085C75.8568 207.085 75.8571 207.085 75.8569 207.085C75.857 207.085 75.8569 207.085 76.5179 206.332C77.1788 205.579 77.1789 205.579 77.1788 205.578C77.1786 205.578 77.1781 205.578 77.1776 205.577C77.1766 205.577 77.1752 205.575 77.1732 205.574C77.1693 205.57 77.1633 205.565 77.1554 205.558C77.1394 205.544 77.1155 205.523 77.084 205.495C77.021 205.438 76.9277 205.355 76.807 205.247C76.5656 205.03 76.2151 204.714 75.7798 204.317C74.909 203.522 73.7 202.405 72.3479 201.111C69.6352 198.516 66.3782 195.244 64.1141 192.468L62.5666 193.74ZM30.6444 16.8571V1.00379H28.6444V16.8571H30.6444Z" fill="#B1ADA7"/>
<path d="M352.391 150.408C352.481 151.096 353.108 151.579 353.793 151.49C354.477 151.4 354.96 150.771 354.87 150.083L352.391 150.408ZM352.54 1.25487V0.000895839L350.04 0V1.25398L352.54 1.25487ZM350 114.638C350 123.355 350.598 132.297 351.195 139.051C351.494 142.431 351.792 145.267 352.017 147.259C352.129 148.257 352.222 149.042 352.288 149.579C352.32 149.848 352.346 150.054 352.364 150.194C352.373 150.264 352.38 150.317 352.384 150.353C352.386 150.371 352.388 150.384 352.389 150.394C352.39 150.398 352.39 150.402 352.391 150.404C352.391 150.405 352.391 150.407 352.391 150.408C352.391 150.408 352.391 150.408 353.631 150.246C354.87 150.083 354.87 150.083 354.87 150.083C354.87 150.082 354.87 150.081 354.87 150.08C354.87 150.078 354.869 150.075 354.869 150.071C354.868 150.063 354.866 150.05 354.864 150.033C354.859 149.999 354.853 149.947 354.844 149.879C354.827 149.742 354.802 149.54 354.769 149.275C354.705 148.744 354.612 147.967 354.501 146.979C354.279 145.002 353.982 142.186 353.685 138.83C353.092 132.113 352.5 123.251 352.5 114.638H350ZM350.04 1.25398C350.023 47.7137 350 85.2413 350 114.638H352.5C352.5 85.242 352.523 47.7157 352.54 1.25487L350.04 1.25398Z" fill="#B1ADA7"/>
<path d="M344.343 1.25213V0H341.843V1.25213H344.343ZM344.389 212.467C344.639 213.111 345.364 213.43 346.007 213.179C346.651 212.927 346.969 212.201 346.718 211.557L344.389 212.467ZM341.843 1.25213C341.843 15.2105 339.184 56.9759 338.413 84.0429L340.912 84.1144C341.676 57.2793 344.343 15.2096 344.343 1.25213H341.843ZM338.413 84.0429C337.622 111.803 337.846 127.393 337.941 155.131L340.441 155.122C340.346 127.369 340.122 111.825 340.912 84.1144L338.413 84.0429ZM337.941 155.131C337.981 166.838 336.905 173.811 338.184 185.71L340.669 185.442C339.406 173.694 340.482 167.198 340.441 155.122L337.941 155.131ZM338.184 185.71C338.861 192.006 339.147 195.705 340.811 201.949L343.226 201.304C341.621 195.277 341.35 191.771 340.669 185.442L338.184 185.71ZM340.811 201.949C341.377 204.072 342.275 206.71 343.023 208.795C343.399 209.842 343.74 210.759 343.987 211.414C344.11 211.741 344.21 212.004 344.28 212.185C344.315 212.275 344.342 212.345 344.36 212.394C344.369 212.417 344.376 212.436 344.381 212.448C344.384 212.454 344.385 212.459 344.387 212.462C344.387 212.464 344.388 212.465 344.388 212.466V212.467H344.389C344.389 212.467 344.389 212.467 345.553 212.012C346.718 211.557 346.718 211.557 346.718 211.557C346.718 211.557 346.718 211.557 346.717 211.556C346.717 211.556 346.717 211.555 346.716 211.553C346.715 211.55 346.714 211.546 346.711 211.54C346.707 211.529 346.7 211.512 346.691 211.489C346.674 211.443 346.647 211.375 346.613 211.287C346.545 211.109 346.447 210.852 346.325 210.529C346.082 209.883 345.746 208.98 345.376 207.948C344.632 205.875 343.764 203.32 343.226 201.304L340.811 201.949Z" fill="#B1ADA7"/>
<path d="M335.767 1.003V0H333.767V1.003H335.767ZM330.866 74.5528L329.868 74.4903L329.867 74.5023V74.5142L330.866 74.5528ZM288.557 200.603C288.238 201.056 288.346 201.682 288.797 202.001C289.248 202.321 289.872 202.213 290.19 201.76L288.557 200.603ZM333.767 1.003C333.767 11.9887 331.393 50.016 329.868 74.4903L331.864 74.6154C333.386 50.1937 335.767 12.0707 335.767 1.003H333.767ZM330.866 74.5528C329.867 74.5142 329.867 74.5139 329.867 74.5142C329.867 74.5145 329.867 74.5154 329.867 74.516C329.867 74.5173 329.867 74.5194 329.866 74.5221C329.866 74.5277 329.866 74.536 329.865 74.5472C329.865 74.5696 329.863 74.6034 329.861 74.6482C329.858 74.7379 329.852 74.8719 329.844 75.0481C329.828 75.4007 329.803 75.9222 329.768 76.5965C329.698 77.9453 329.586 79.9046 329.418 82.3437C329.082 87.2222 328.524 94.0171 327.637 101.681C325.859 117.032 322.766 135.78 317.519 149.604L319.388 150.318C324.728 136.248 327.842 117.292 329.623 101.912C330.515 94.2107 331.076 87.3838 331.413 82.4818C331.582 80.0306 331.695 78.06 331.765 76.7014C331.801 76.022 331.826 75.4956 331.842 75.1385C331.85 74.96 331.856 74.8237 331.86 74.7319C331.861 74.6859 331.863 74.6511 331.864 74.6277C331.864 74.6159 331.865 74.607 331.865 74.601C331.865 74.598 331.865 74.5957 331.865 74.5941C331.865 74.5933 331.865 74.5927 331.865 74.5923C331.865 74.5918 331.865 74.5915 330.866 74.5528ZM317.519 149.604C313.472 160.266 306.245 173.004 300.002 183.111C296.885 188.156 294.022 192.531 291.939 195.645C290.897 197.202 290.051 198.442 289.465 199.294C289.172 199.719 288.945 200.047 288.791 200.269C288.714 200.379 288.655 200.464 288.615 200.52C288.596 200.548 288.581 200.569 288.571 200.583C288.566 200.59 288.563 200.595 288.56 200.598C288.559 200.6 288.558 200.601 288.557 200.602C288.557 200.603 288.557 200.603 288.557 200.603C288.557 200.603 288.557 200.603 289.374 201.182C290.19 201.76 290.191 201.76 290.191 201.76C290.191 201.759 290.191 201.759 290.192 201.758C290.192 201.757 290.193 201.756 290.195 201.754C290.197 201.75 290.201 201.745 290.206 201.737C290.217 201.723 290.232 201.701 290.252 201.672C290.292 201.615 290.352 201.53 290.43 201.417C290.586 201.193 290.816 200.862 291.111 200.433C291.701 199.576 292.553 198.327 293.599 196.762C295.693 193.634 298.569 189.238 301.702 184.167C307.957 174.042 315.27 161.169 319.388 150.318L317.519 149.604Z" fill="#B1ADA7"/>
<path d="M341.027 1.2523V0H338.527V1.2523H341.027ZM325.716 190.134C325.524 190.798 325.906 191.494 326.569 191.686C327.233 191.878 327.926 191.496 328.118 190.83L325.716 190.134ZM338.527 1.2523C338.527 16.4524 336.808 35.9964 335.631 58.3159L338.127 58.4481C339.297 36.2698 341.027 16.537 341.027 1.2523H338.527ZM335.631 58.3159C334.537 79.0428 333.586 90.7176 332.732 111.498L335.23 111.6C336.083 90.8275 337.03 79.2511 338.127 58.4481L335.631 58.3159ZM332.732 111.498C332.194 124.58 332.442 131.712 331.646 144.679L334.142 144.832C334.936 131.898 334.702 124.447 335.23 111.6L332.732 111.498ZM331.646 144.679C330.788 158.661 331.397 166.451 328.414 179.867L330.854 180.412C333.894 166.738 333.3 158.551 334.142 144.832L331.646 144.679ZM328.414 179.867C327.967 181.875 327.295 184.438 326.73 186.51C326.448 187.543 326.194 188.451 326.011 189.099C325.92 189.423 325.846 189.682 325.795 189.861C325.769 189.95 325.75 190.018 325.736 190.065C325.73 190.088 325.725 190.105 325.721 190.117C325.72 190.123 325.718 190.127 325.717 190.13C325.717 190.132 325.717 190.133 325.717 190.133C325.716 190.134 325.716 190.134 325.716 190.134C325.716 190.134 325.716 190.134 326.917 190.483C328.118 190.83 328.118 190.83 328.118 190.83C328.118 190.83 328.118 190.83 328.118 190.829C328.118 190.828 328.119 190.827 328.119 190.826C328.12 190.822 328.121 190.818 328.123 190.812C328.127 190.799 328.132 190.781 328.139 190.758C328.152 190.71 328.172 190.641 328.198 190.55C328.25 190.369 328.324 190.108 328.417 189.78C328.602 189.127 328.857 188.213 329.141 187.17C329.708 185.09 330.394 182.481 330.854 180.412L328.414 179.867Z" fill="#B1ADA7"/>
<path fill-rule="evenodd" clip-rule="evenodd" d="M5.65971 182.376C6.30731 175.793 6.99206 168.832 7.58516 162.561L10.1827 158.324C10.1827 158.324 8.38725 204.014 8.38725 207.101C8.38725 210.188 9.00932 216.553 12.7262 220.716C15.4633 223.781 18.3169 224.579 21.7911 225.55C22.847 225.845 23.9601 226.156 25.1447 226.551C31.3956 228.639 35.1789 229.076 41.7526 229.544C48.7952 230.044 53.1384 229.489 59.5421 228.671L59.5503 228.67L59.5525 228.669L59.5731 228.667C60.3798 228.564 61.2193 228.456 62.101 228.347C65.9542 227.867 68.5353 227.382 71.7051 226.788L71.7076 226.787C72.8316 226.576 74.0298 226.351 75.385 226.108C77.0419 225.81 78.5598 225.544 79.9916 225.293L80.0108 225.289L80.0388 225.284H80.0402C85.9926 224.24 90.4632 223.455 97.2667 221.772C104.268 220.041 109.526 218.012 114.793 215.98C120.002 213.97 125.22 211.957 132.14 210.226C133.193 209.962 134.127 209.714 135.003 209.482H135.005L135.006 209.481C137.568 208.802 139.639 208.253 142.784 207.811C145.837 207.381 149.566 206.871 150.655 207.184C151.743 207.498 152.701 208.163 152.443 209.599C152.317 210.303 151.833 210.907 151.314 211.556C150.772 212.233 150.192 212.957 149.939 213.893C149.529 215.408 149.459 216.797 149.372 218.503V218.507C149.354 218.862 149.336 219.231 149.313 219.617C149.297 219.899 149.28 220.184 149.262 220.472C149.013 224.643 148.732 229.34 149.76 230.797C150.738 232.184 152.532 232.903 154.549 233.712C154.798 233.812 155.051 233.913 155.306 234.017C158.154 235.18 159.744 235.717 162.998 235.717H197.612C200.754 235.717 206.766 235.451 208.435 234.375C210.103 233.299 210.609 232.315 211.386 230.618C212.482 228.226 212.547 225.678 212.605 223.047L212.613 222.664C212.689 219.28 212.728 217.568 211.297 214.608C210.622 213.212 209.303 212.01 208.182 210.989C206.839 209.765 205.782 208.801 206.467 208.079C207.723 206.754 215.245 207.732 217.006 208.084C217.644 208.211 218.838 208.415 220.37 208.677L220.372 208.678L220.379 208.679C223.073 209.139 226.811 209.778 230.405 210.493C239.053 212.212 245.309 214.882 251.688 217.605C257.322 220.009 263.052 222.455 270.611 224.323L271.366 224.51C275.574 225.551 278.16 226.19 282.635 226.968C290.566 228.347 295.638 228.553 302.791 228.843C304.054 228.895 305.382 228.949 306.802 229.012C308.859 229.104 310.682 229.231 312.394 229.349H312.396C317.164 229.68 321.069 229.95 326.761 229.253C328.165 229.081 329.46 228.98 330.687 228.884C334.726 228.57 338.013 228.314 341.911 225.766C345.051 223.713 347.57 220.773 348.644 218.912C349.718 217.051 350.688 205.807 350.688 205.807C350.889 202.841 350.495 176.97 350.283 163.034V163.027C350.211 158.308 350.16 154.959 350.16 154.333C350.16 151.856 350.071 67.4658 350.071 67.4658L352.443 67.477C352.443 67.477 353.155 97.2721 353.928 116.352C354.284 125.158 354.712 132.206 355.129 139.088V139.089V139.091V139.094C355.633 147.406 356.123 155.477 356.456 166.115C357.182 189.363 357.25 223.904 356.929 225.673C356.609 227.442 355.255 232.083 354.086 233.572C352.917 235.061 350.068 236.073 347.767 236.731C345.466 237.39 333.696 236.923 324.702 236.415C316.348 235.944 311.659 235.54 303.375 234.362C291.012 232.603 284.157 230.96 272.095 227.727C269.95 227.152 267.467 226.381 265.315 225.713C262.773 224.924 260.693 224.278 260.179 224.268C259.766 224.261 257.511 225.307 254.456 226.726L254.454 226.727C250.496 228.564 245.195 231.025 240.816 232.624C239.844 232.979 238.921 233.319 238.034 233.647C231.086 236.209 226.377 237.945 218.383 239.259C211.289 240.425 203.156 240.387 199.155 240.369C198.72 240.367 198.334 240.365 198.004 240.365H159.773C156.368 240.365 142.914 239.434 141.642 239.128C140.507 238.856 138.684 238.286 136.763 237.687L136.065 237.469C130.746 235.811 127.766 234.847 122.586 232.796C117.924 230.95 112.266 228.056 108.202 225.977C105.372 224.529 103.314 223.477 102.908 223.451C101.917 223.388 90.3186 227.005 90.3186 227.005C82.5799 229.076 78.23 230.22 70.3942 231.888C59.4732 234.213 53.2973 235.402 42.2006 236.641C29.8787 238.017 11.4074 238.922 10.4908 238.204C9.57432 237.486 6.32263 228.449 5.347 225.247C4.37136 222.045 3.05926 212.663 3.2634 208.252C3.39581 205.391 4.46449 194.527 5.65971 182.376ZM347.479 232.55C348.958 231.421 348.782 228.473 348.381 228.037C348.168 227.805 347.649 228.162 346.956 228.638C346.35 229.055 345.611 229.564 344.829 229.847C342.53 230.681 338.711 231.103 336.036 231.399C335.78 231.427 335.533 231.455 335.3 231.481C327.607 232.348 318.265 231.923 311.598 231.619C307.312 231.424 304.13 231.279 303.204 231.56C300.836 232.279 322.221 234.949 333.315 234.355L333.373 234.352C338.932 234.054 346.004 233.676 347.479 232.55ZM254.101 222.95C253.947 221.568 241.204 216.58 232.292 214.733C231.658 214.602 231.012 214.465 230.362 214.326C225.762 213.346 220.958 212.323 219.007 213.198C216.78 214.196 215.244 215.501 214.783 218.727C214.323 221.952 215.474 225.715 216.857 227.942C218.239 230.169 221.771 231.013 225.457 231.397C229.143 231.781 241.43 228.019 241.43 228.019C241.43 228.019 254.255 224.333 254.101 222.95ZM127.868 231.201C125.344 230.243 108.98 223.019 109.85 221.626C110.721 220.233 115.334 218.318 117.249 217.535C119.164 216.752 136.747 211.268 139.097 211.355C141.447 211.442 142.927 212.225 143.884 213.27C144.842 214.314 144.842 216.665 144.755 218.58C144.745 218.797 144.735 219.096 144.723 219.456V219.46C144.63 222.274 144.412 228.855 143.101 230.243C141.621 231.81 139.445 232.594 137.008 232.681C134.571 232.768 130.393 232.158 127.868 231.201ZM18.8136 229.913C18.0599 229.681 15.4512 230.319 14.7555 231.015C14.0599 231.71 13.3062 233.508 13.5961 234.319C13.8859 235.131 22.06 235.073 24.089 235.015C26.118 234.957 34.5282 234.379 41.1907 233.681C42.5491 233.539 43.8585 233.431 45.1118 233.328C48.2545 233.068 51.0439 232.837 53.3648 232.174C56.2633 231.346 38.8284 232.043 33.8204 232.243C33.2193 232.267 32.7973 232.284 32.6109 232.29C30.8717 232.348 22.9293 231.969 22.1177 231.564C21.8744 231.442 21.5478 231.266 21.1895 231.073C20.3522 230.621 19.3413 230.076 18.8136 229.913Z" fill="#B1ADA7"/>
<path fill-rule="evenodd" clip-rule="evenodd" d="M331.162 178.53C331.162 178.53 329.407 185.965 329.887 191.073C329.927 191.495 329.963 191.902 329.999 192.298C330.34 196.131 330.581 198.843 332.808 202.289C334.789 205.353 336.566 206.729 339.701 208.597C341.667 209.769 345.075 210.934 345.075 210.934L345.845 213.338C345.845 213.338 333.47 214.941 325.565 214.322C320.31 213.91 316.826 213.053 312.565 212.005C311.039 211.63 309.414 211.23 307.573 210.817C301.443 209.443 297.544 208.385 292.289 206.959L292.286 206.958C291.081 206.631 289.804 206.284 288.413 205.91C284.343 204.816 281.037 203.752 277.868 202.733C273.187 201.228 268.807 199.819 262.711 198.55C261.986 198.399 261.285 198.252 260.604 198.11C252.346 196.38 247.036 195.267 238.06 195.162C230.043 195.068 225.467 195.411 217.615 197.031C208.684 198.874 195.532 203.76 195.534 204.625C195.536 205.491 196.548 207.136 197.633 206.846C198.045 206.736 199.19 206.171 200.719 205.417C203.213 204.188 206.731 202.453 209.763 201.362C214.244 199.748 216.818 198.912 221.506 198.071C227.911 196.922 231.652 196.989 238.152 197.297C243.69 197.559 247.077 198.198 251.996 199.126C252.721 199.263 253.479 199.406 254.283 199.555C260.275 200.667 264.212 201.732 269.145 203.067L269.148 203.068C270.743 203.5 272.442 203.96 274.349 204.459L275.376 204.727C279.759 205.873 282.511 206.593 287.124 207.943C289.42 208.615 291.229 209.212 293.005 209.798C295.05 210.473 297.053 211.134 299.706 211.879C304.063 213.102 307.246 213.8 310.771 214.573C312.772 215.012 314.885 215.475 317.385 216.073C319.209 216.508 320.736 216.943 322.181 217.355C324.809 218.104 327.167 218.775 330.547 219.234C332.742 219.532 335.639 219.378 338.11 219.247C341.15 219.085 343.545 218.958 343.193 219.75C343.12 219.915 343.05 220.081 342.98 220.249C342.437 221.544 341.868 222.902 339.515 223.88C336.858 224.984 330.567 225.838 324.74 226.396C315.648 227.266 302.05 227.325 301.357 225.949C301.052 225.344 301.174 224.545 301.299 223.728C301.458 222.687 301.622 221.615 300.916 220.872C299.82 219.72 292.882 216.564 286.666 213.737L286.657 213.732C285.72 213.306 284.8 212.888 283.92 212.485C283.107 212.113 282.371 211.772 281.679 211.451L281.676 211.45C279.066 210.24 277.069 209.315 273.924 208.115C267.631 205.714 263.94 204.775 257.391 203.198C256.731 203.04 256.122 202.89 255.545 202.748L255.541 202.747C252.832 202.08 250.846 201.592 247.681 201.17C243.793 200.653 241.4 200.641 237.794 200.624C237.379 200.622 236.947 200.62 236.495 200.617C235.723 200.612 234.989 200.605 234.284 200.598C228.792 200.545 225.06 200.508 219.163 201.662C213.3 202.809 205.684 205.15 204.597 206.333C203.51 207.516 203.3 207.763 203.183 209.222C203.119 210.033 203.701 211.287 204.377 212.739C204.916 213.899 205.513 215.185 205.888 216.474C206.099 217.203 206.338 217.844 206.562 218.449C207.129 219.976 207.61 221.27 207.363 223.173C207.059 225.505 206.458 226.933 204.843 228.643C203.593 229.967 202.433 230.413 200.924 230.993C200.589 231.121 200.238 231.256 199.864 231.409C196.813 232.657 194.817 232.845 191.668 233.141H191.665L191.637 233.144C191.473 233.159 191.307 233.175 191.137 233.191C190.851 233.218 190.629 233.242 190.435 233.263C189.721 233.34 189.393 233.375 187.695 233.375H167.168C164.803 233.375 162.673 232.565 159.983 231.543L159.792 231.47C159.198 231.244 158.644 231.065 158.121 230.896C156.506 230.374 155.179 229.945 153.831 228.52C152.384 226.992 151.823 225.781 151.372 223.726C150.785 221.045 151.572 219.207 152.535 216.958C152.798 216.344 153.074 215.7 153.339 214.999C153.725 213.979 154.303 213.221 154.855 212.498C155.651 211.455 156.39 210.486 156.412 208.914C156.414 208.782 156.417 208.68 156.419 208.594C156.423 208.465 156.425 208.377 156.421 208.288C156.412 208.093 156.371 207.899 156.239 207.278L156.238 207.27C156.201 207.096 156.157 206.89 156.105 206.64C155.723 204.815 149.841 203.276 148.343 203.025C146.845 202.775 135.969 201.35 127.994 201.284C116.66 201.189 110.245 202.053 99.1198 204.217C93.6407 205.282 90.5696 205.958 85.2256 207.569C80.5992 208.964 77.4789 210.257 73.8516 211.76C72.2068 212.442 70.4578 213.167 68.4168 213.964C66.4253 214.742 64.6932 215.35 63.0613 215.923C59.7074 217.102 56.7764 218.132 52.8869 220.176C50.3665 221.5 48.989 222.318 46.5921 223.854C45.8807 224.31 45.1892 224.863 44.5488 225.375C43.5716 226.156 42.7133 226.842 42.0846 226.945C41.0439 227.115 33.5781 226.497 28.4334 224.885C24.1816 223.552 16.0125 220.706 18.0663 220.12C19.2036 219.795 21.6616 219.502 24.5399 219.158C26.8595 218.882 29.452 218.572 31.8462 218.188C32.3572 218.106 32.8434 218.028 33.3103 217.954C37.0597 217.355 39.563 216.955 43.6275 216.088C47.863 215.185 50.7002 214.397 54.1515 213.438C55.4294 213.083 56.7918 212.705 58.3402 212.288C60.29 211.764 62.8426 211.145 65.3502 210.538C70.8921 209.194 76.2138 207.904 74.3196 207.806C72.4642 207.71 68.7601 208.481 64.6679 209.333C62.6919 209.744 60.6249 210.174 58.6325 210.534C55.861 211.036 53.6172 211.48 51.4483 211.909C48.5485 212.483 45.7826 213.03 42.0686 213.652C41.1296 213.81 40.2507 213.959 39.4143 214.1L39.4102 214.101C34.5051 214.932 31.0598 215.516 25.5046 216.088C21.5188 216.499 15.2739 216.868 15.2739 216.868L16.2483 212.775C16.2483 212.775 23.1929 209.867 26.1867 206.345C28.3436 203.807 29.0705 201.77 30.0889 198.915C30.2413 198.489 30.4001 198.043 30.5712 197.576C32.7566 191.601 32.6002 180.014 32.6002 180.014L35.0194 183.124C35.0194 183.124 36.0588 189.079 37.3917 192.217C37.9653 193.567 41.0142 194.659 43.2691 195.467C43.7215 195.629 44.1424 195.78 44.5045 195.919C46.6711 196.751 50.8916 198.078 55.1249 198.842C59.4846 199.629 61.9977 199.889 66.4274 199.817C69.446 199.767 71.3191 199.506 73.9931 199.133C74.4345 199.071 74.8976 199.007 75.3914 198.94C78.8932 198.463 81.5127 197.818 84.2003 197.156C86.4785 196.595 88.8056 196.022 91.7605 195.529C100.237 194.116 105.057 193.689 113.628 193.062L113.777 193.051C121.304 192.501 125.589 192.187 133.179 192.318C133.699 192.326 134.204 192.335 134.694 192.343C141.074 192.447 145.121 192.513 151.799 193.621C156.063 194.329 158.429 194.902 162.599 196.042C163.933 196.406 165.571 196.715 167.188 197.019C171.026 197.742 174.739 198.442 173.951 199.812C173.278 200.982 172.152 201.722 170.908 202.54C170.082 203.083 169.204 203.66 168.371 204.421C168.14 204.631 167.915 204.837 167.694 205.038L167.69 205.041C163.949 208.45 161.576 210.612 158.767 215.1C158.261 215.907 157.681 216.608 157.128 217.277C155.783 218.904 154.6 220.335 155.058 222.607C155.428 224.442 156.338 225.795 157.591 226.677C158.844 227.559 167.576 228.848 170.073 228.848H188.343C190.836 228.848 197.442 227.891 199.274 227.009C201.106 226.127 201.81 225.294 202.457 223.587C203.119 221.842 202.701 219.989 202.298 218.812C201.896 217.635 199.713 215.211 198.558 214.275C197.929 213.766 195.79 212.16 193.854 210.706L193.853 210.705L193.852 210.704C192.235 209.49 190.761 208.383 190.426 208.11C189.69 207.509 187.151 205.439 186.196 204.718C185.941 204.526 185.517 204.28 185.03 203.999C183.695 203.227 181.891 202.185 181.845 201.223C181.781 199.912 193.058 197.06 195.056 196.687C197.055 196.314 206.802 194.614 214.395 193.822C222.199 193.009 226.605 192.594 234.451 192.628C240.676 192.655 244.169 192.934 250.368 193.504C255.41 193.967 259.155 194.603 263.075 195.269C266.036 195.772 269.096 196.292 272.89 196.767C274.12 196.921 275.228 197.064 276.269 197.199L276.271 197.2H276.272C279.883 197.668 282.693 198.033 286.977 198.358C291.953 198.737 294.754 198.905 299.744 198.907C300.682 198.908 301.508 198.932 302.284 198.954C304.293 199.013 305.964 199.062 308.36 198.664C311.996 198.061 314.205 197.694 317.339 195.752C320.038 194.08 321.235 192.594 323.206 190.147L323.285 190.049C327.263 185.11 329.517 175.302 329.517 175.302L331.162 178.53ZM36.2238 198.991C34.5047 200.326 33.7158 202.01 34.1134 204.15C34.4662 206.048 35.8768 207.476 37.24 207.98C38.6033 208.483 42.4102 209.082 45.7598 208.996C49.7754 208.893 54.6705 207.793 55.8429 206.964L55.9568 206.883C57.0958 206.08 58.2849 205.241 58.4362 203.274C58.5101 202.314 55.1007 201.49 51.7837 200.688L51.7368 200.677C47.7539 199.714 43.684 198.847 42.6333 198.678C42.1778 198.605 41.74 198.518 41.3163 198.433C39.4381 198.057 37.8387 197.737 36.2238 198.991ZM99.0409 197.318C98.511 197.397 97.9485 197.48 97.3613 197.566C89.6165 198.709 77.5918 200.484 79.9335 201.022C81.9321 201.482 84.5395 201.259 87.446 201.01C88.2033 200.946 88.981 200.879 89.7734 200.823C91.8988 200.671 93.4308 200.462 95.1085 200.233C96.1131 200.096 97.17 199.952 98.4378 199.809L99.6073 199.677C104.465 199.127 107.524 198.781 112.695 198.292C114.379 198.133 115.845 197.969 117.222 197.816C120.537 197.446 123.334 197.134 127.408 197.079C133.459 196.997 136.908 197 142.878 197.989C143.239 198.048 143.586 198.105 143.923 198.16L143.925 198.161C147.518 198.749 149.868 199.133 153.496 200.567C156.477 201.746 158.417 202.756 160.776 204.359C163.135 205.963 160.253 201.601 158.956 200.719C157.659 199.836 151.58 197.543 146.002 196.306C138.378 194.614 132.814 194.791 125.497 195.022C124.596 195.051 123.668 195.08 122.706 195.107C113.427 195.366 108.223 195.957 99.0409 197.318ZM319.43 199.205C322.631 199.26 327.172 199.339 327.32 202.707C327.428 205.158 325.733 206.454 323.614 207.779C321.495 209.104 310.833 208.445 308.203 207.389C305.574 206.333 303.318 204.463 305.277 202.707C307.236 200.951 315.728 199.131 318.932 199.196C319.094 199.199 319.26 199.202 319.43 199.205Z" fill="#B1ADA7"/>
<path d="M296.315 192.287L294.185 192.355L292.209 195.135C292.209 195.135 290.478 197.191 289.262 197.687C288.045 198.182 283.806 198.201 283.806 198.201L288.123 203.379L298.286 198.924C298.286 198.924 294.842 198.742 294.322 197.307C293.802 195.873 296.315 192.287 296.315 192.287Z" fill="#B1ADA7"/>
<path d="M62.5915 193.343L64.9719 193.252C64.9719 193.252 65.7714 194.415 67.0319 195.495C68.188 196.486 69.946 198.055 71.1625 198.551C72.379 199.047 76.4162 198.837 76.4162 198.837L72.301 204.243L62.1382 199.788C62.1382 199.788 64.5227 199.662 65.0429 198.228C65.5631 196.793 62.5915 193.343 62.5915 193.343Z" fill="#B1ADA7"/>
<path d="M95.4292 218.265L82.9119 211.03C82.9119 211.03 81.4334 210.471 80.4412 210.313C79.1419 210.107 77.0605 210.385 77.0605 210.385L80.041 206.321L91.9434 205.706C91.9434 205.706 87.382 207.278 86.7576 207.811C86.1332 208.345 85.8571 209.607 86.4719 209.996C87.0866 210.385 96.4628 216.427 96.4628 216.427C96.4628 216.427 101.183 218.292 102.664 218.494C104.144 218.697 108.531 218.381 108.531 218.381L106.798 221.135L95.2878 222.286C95.2878 222.286 97.9283 221.049 97.9557 220.332C97.9831 219.615 95.4292 218.265 95.4292 218.265Z" fill="#B1ADA7"/>
<path d="M267.496 219.74C268.075 219.359 278.389 213.039 278.389 213.039C278.389 213.039 279.781 212.402 280.774 212.244C282.073 212.038 284.699 212.791 284.699 212.791L282.885 207.796L271.11 207.077C271.11 207.077 275.454 208.929 276.078 209.462C276.703 209.996 277.068 211.082 276.454 211.471C275.839 211.86 267.008 217.562 266.463 217.902C265.918 218.242 261.742 219.767 260.262 219.969C258.781 220.172 254.864 218.951 254.864 218.951L256.127 222.611L267.813 223.6C267.813 223.6 265.549 222.578 265.521 221.861C265.494 221.144 266.917 220.121 267.496 219.74Z" fill="#B1ADA7"/>
</g>
<defs>
<clipPath id="clip0_184_1596">
<rect width="362" height="241" fill="white"/>
</clipPath>
</defs>
</svg>
