<svg width="194" height="194" viewBox="0 0 194 194" fill="none" xmlns="http://www.w3.org/2000/svg">
<rect width="194" height="194" rx="24" fill="#1A1A1A"/>
<path d="M50.7808 28.0918C54.3573 28.0918 58.7554 28.2999 62.9165 28.5059C67.0968 28.7128 71.0252 28.917 73.7163 28.917H98.7964C100.162 28.917 101.503 28.9438 102.82 28.9961C103.101 28.9965 103.389 29.0051 103.673 29.0352C116.003 29.6363 126.128 32.5852 133.416 38.1777C141.688 44.5266 146.162 54.1691 146.162 67.207C146.162 80.492 141.526 90.2686 134.167 96.7109C126.828 103.135 116.88 106.157 106.386 106.157C101.836 106.157 96.6381 105.316 92.5327 104.659C90.6979 104.366 89.4383 104.786 88.6274 105.582C87.7915 106.402 87.2564 107.792 87.2563 109.776V143.106C87.2563 146.645 87.3738 149.37 87.7202 151.479C88.0665 153.588 88.6265 154.981 89.436 155.937C90.2301 156.874 91.3562 157.5 93.063 157.889C94.7924 158.283 97.0421 158.417 100 158.417C100.5 158.417 101.336 158.419 102.287 158.441H112.5C119.006 158.441 122.601 158.721 126.012 155.805C127.747 154.321 129.478 151.961 131.43 148.148C133.38 144.341 135.517 139.153 138.09 132.075C138.433 131.133 138.808 130.349 139.263 129.787C139.737 129.201 140.37 128.776 141.175 128.776C141.518 128.776 141.914 128.831 142.281 129.036C142.675 129.257 142.944 129.603 143.089 130.014C143.343 130.731 143.221 131.656 142.97 132.659C142.743 133.569 142.317 136.537 141.949 141.048C141.583 145.528 141.28 151.469 141.28 158.287C141.28 159.712 141.125 161.105 140.397 162.142C139.605 163.268 138.32 163.742 136.65 163.742C134.47 163.742 131.162 163.533 127.365 163.328C123.546 163.122 119.189 162.917 114.845 162.917H73.7163L72.6235 162.926C69.9567 162.968 66.4939 163.147 62.855 163.328C58.7146 163.534 54.3575 163.742 50.7808 163.742C50.7264 163.742 50.672 163.74 50.6177 163.739C50.5212 163.74 50.4249 163.742 50.3296 163.742C49.5009 163.742 48.6665 163.672 48.0347 163.286C47.2633 162.815 47.02 162.042 47.02 161.257C47.02 160.902 47.0784 160.532 47.2515 160.186C47.4303 159.828 47.7019 159.556 48.0288 159.363C48.627 159.012 49.4 158.937 50.1646 158.937C55.5919 158.937 59.511 158.262 62.1021 156.078C64.6504 153.93 66.1597 150.097 66.1597 143.106V48.7148C66.2408 41.7313 64.7305 37.9038 62.1665 35.7578C59.5543 33.5717 55.5922 32.8965 50.1646 32.8965C49.3999 32.8965 48.6271 32.8216 48.0288 32.4697C47.7019 32.2774 47.4303 32.0052 47.2515 31.6475C47.0786 31.3015 47.0201 30.9318 47.02 30.5771V30.5059L47.0298 30.4355C47.1275 29.7518 47.3618 29.0229 48.0747 28.5615C48.6946 28.1604 49.5018 28.0918 50.3296 28.0918C50.4252 28.0918 50.5219 28.0944 50.6187 28.0947C50.6726 28.0941 50.7266 28.0918 50.7808 28.0918ZM98.4663 33.5566C97.2342 33.5566 96.1198 33.5945 95.1157 33.6846C93.461 34.1323 92.0663 34.8004 90.9224 35.7578C89.1678 37.2263 87.8906 39.4798 87.2563 42.9844V89.4814C87.2563 93.7473 89.1766 96.7914 92.103 98.8057C95.0682 100.847 99.1025 101.847 103.251 101.847C110.145 101.847 115.719 97.8355 119.619 91.4365C123.525 85.0261 125.681 76.306 125.681 67.207C125.681 57.1553 122.884 48.7298 118.108 42.8389C113.345 36.9646 106.575 33.5567 98.4663 33.5566Z" fill="white" stroke="white" stroke-width="2"/>
</svg>
