<svg xmlns="http://www.w3.org/2000/svg" version="1.2" viewBox="108.4 60.8 285.9 397.1">
	<title>New Project</title>
	<style>
		tspan { white-space:pre } 
		.s0 { fill: #ffffff } 
		.s1 { fill: #000000;stroke: #ffffff;paint-order:stroke fill markers;stroke-miterlimit:100;stroke-width: 48 } 
	</style>
	<path id="Color Fill 1" class="s0" d="m187 320l53-77 28 2 49 77zm63-128l-28-36 28-28 29 33z"/>
	<path id="♙ copy" fill-rule="evenodd" class="s1" d="m300.1 217.4l70.2 102.7v95.5q-58.5 18.3-119 18.3-60.4 0-118.9-18.3v-95.5l70.2-102.7q-26-22.1-26-57.8 0-31.2 21.4-52.7 22.1-22.1 53.3-22.1 31.2 0 52.7 22.1 22.1 21.5 22.1 52.7 0 35.7-26 57.8zm-132.6 146.2v27.4q38.3 9.7 83.8 9.7 45.5 0 83.9-9.7v-28q-45.5 8.5-83.9 8.5-44.8 0-83.8-7.9zm55.2-233.3q-11 11.7-11 29.3 0 17.5 11 29.2 11.7 11.7 28.6 11.7 16.9 0 28-11.7 11.7-11.7 11.7-29.2 0-17.6-11.7-29.3-11.1-11.7-28-11.7-16.9 0-28.6 11.7zm-56.5 198.9q43.5 9.1 85.1 9.1 41.6 0 85.2-9.1l-65.7-97.5q-7.1 2.6-19.5 2.6-11.7 0-19.5-2.6z"/>
</svg>